<?xml version="1.0" encoding="UTF-8" standalone="no"?>
<!-- Created with Inkscape (http://www.inkscape.org/) -->

<svg
   width="59.7188mm"
   height="68.984116mm"
   viewBox="0 0 59.7188 68.984116"
   version="1.1"
   id="svg5"
   xml:space="preserve"
   inkscape:version="1.2.2 (732a01da63, 2022-12-09, custom)"
   sodipodi:docname="diogo-dark.svg"
   xmlns:inkscape="http://www.inkscape.org/namespaces/inkscape"
   xmlns:sodipodi="http://sodipodi.sourceforge.net/DTD/sodipodi-0.dtd"
   xmlns="http://www.w3.org/2000/svg"
   xmlns:svg="http://www.w3.org/2000/svg"><sodipodi:namedview
     id="namedview7"
     pagecolor="#ffffff"
     bordercolor="#666666"
     borderopacity="1.0"
     inkscape:showpageshadow="2"
     inkscape:pageopacity="0.0"
     inkscape:pagecheckerboard="0"
     inkscape:deskcolor="#d1d1d1"
     inkscape:document-units="mm"
     showgrid="false"
     showguides="true"
     inkscape:zoom="1.1993833"
     inkscape:cx="55.02828"
     inkscape:cy="136.73694"
     inkscape:window-width="1366"
     inkscape:window-height="731"
     inkscape:window-x="0"
     inkscape:window-y="0"
     inkscape:window-maximized="1"
     inkscape:current-layer="g4434" /><defs
     id="defs2" /><g
     inkscape:label="Layer 1"
     inkscape:groupmode="layer"
     id="layer1"
     transform="translate(-54.432287,-26.963)"><g
       id="g555"><g
         id="g4434"><path
           style="fill:#f4e4f7;fill-opacity:1;stroke:none;stroke-width:0.61361px;stroke-linecap:butt;stroke-linejoin:miter;stroke-opacity:1"
           d="m 98.720687,72.15352 6.090303,8.278375 -8.209673,13.126367 -2.69267,-2.647459 -9.957562,-5.471288 z"
           id="path662" /><path
           id="path537"
           style="fill:#eed7f4;stroke:none;stroke-width:0.61361px;stroke-linecap:butt;stroke-linejoin:miter;stroke-opacity:1"
           d="m 104.95432,80.249365 c -0.11793,-0.0023 -0.55392,0.49461 -1.48725,1.778703 0,0.137758 -1.14899,1.825212 -1.24282,1.825212 -0.0501,0 -0.21064,0.214514 -0.35812,0.476973 -0.14748,0.26239 -0.38377,0.581732 -0.52503,0.709518 -0.14126,0.127784 -0.25735,0.297459 -0.25735,0.377237 0,0.07978 -0.10709,0.260289 -0.23874,0.401526 -0.13166,0.141237 -0.35316,0.480879 -0.49248,0.753959 -0.13931,0.273081 -0.3431,0.570442 -0.451651,0.660425 -0.108537,0.08998 -0.196887,0.241329 -0.196887,0.336414 0,0.09509 -0.05658,0.172599 -0.125574,0.172599 -0.06902,0 -0.126091,-0.05646 -0.126091,-0.125574 0,-0.06911 -0.06158,-0.12454 -0.137976,-0.12454 -0.07646,0 -0.10715,0.08314 -0.06821,0.184485 0.03892,0.101347 -0.05145,0.454078 -0.199988,0.783932 -0.148542,0.329829 -0.283258,0.678437 -0.299724,0.775146 -0.01647,0.09648 -0.07662,0.209095 -0.134358,0.250631 -0.09775,0.07004 -0.413412,0.706967 -0.413412,0.834057 0,0.141005 0.211078,0.03417 0.37052,-0.187068 0.136715,-0.189475 0.227966,-0.215068 0.412378,-0.116272 0.16909,0.09045 0.296895,0.08066 0.448035,-0.03669 0.303448,-0.235555 0.683378,-0.650957 0.901238,-0.983919 0.10351,-0.158166 0.35883,-0.519081 0.56792,-0.802018 0.4969,-0.672439 1.08123,-1.643454 1.36633,-2.271179 0.53417,-1.173215 3.04302,-5.666808 2.68924,-5.673557 z" /><path
           id="path3641"
           style="fill:#eed7f4;stroke:none;stroke-width:0.61361px;stroke-linecap:butt;stroke-linejoin:miter;stroke-opacity:1"
           d="m 77.308459,27.21746 -0.589628,0.242363 c -0.162778,0.16424 -2.803142,1.056795 -3.142443,1.061434 -0.05176,8.11e-4 -0.09486,-0.209406 -0.0956,-0.468189 l -1.0573,1.012341 c 0.07414,0.193232 -0.389484,0.74447 -0.807702,0.960148 -0.684571,0.352953 -2.142876,1.576246 -2.624646,2.201416 -0.158329,0.205454 -0.666415,0.777756 -1.12913,1.271757 -0.963283,1.028382 -1.426438,1.602555 -1.653646,2.050521 -0.0875,0.172522 -0.3782,0.577308 -0.645956,0.900204 -0.267744,0.322893 -0.487447,0.63381 -0.487825,0.690397 -4.41e-4,0.05663 -0.07811,0.252936 -0.173633,0.436149 -0.09553,0.183098 -0.244688,0.549489 -0.330729,0.814937 -0.08604,0.265428 -0.312899,0.796515 -0.504879,1.18029 -0.191957,0.383797 -0.390266,0.920933 -0.4408,1.192692 -0.05053,0.271757 -0.224336,0.883305 -0.386023,1.360124 -0.244959,0.722379 -0.391161,1.903846 -0.449068,3.268017 -0.12354,2.910345 0.159888,6.658459 0.779797,8.598959 0.377174,1.180565 0.35854,1.256254 -0.318843,1.256254 -0.455849,0 -0.632694,0.06659 -0.8785,0.331762 -0.352184,0.379971 -0.369236,0.617057 -0.174666,2.401921 l 0.132809,1.217497 0.985469,2.133203 c 0.541533,1.173073 1.082465,2.472089 1.201994,2.886129 0.288624,0.999693 0.864782,2.035695 1.421102,2.554882 l 0.452169,0.42168 0.628902,-0.06356 0.627868,-0.06201 0.527617,0.895036 c 0.289684,0.492566 0.868094,1.279635 1.285709,1.748731 l 1.557042,1.471802 0.338466,0.319937 c 0.270879,-0.311603 0.34914,0.498336 0.549304,0.962098 0.09678,0.224263 0.288859,0.665244 0.426848,0.980302 0.13799,0.315054 0.346608,0.907715 0.463537,1.317232 0.116932,0.409494 0.313973,0.999463 0.4377,1.309998 0.123727,0.310509 0.424063,1.099895 0.668693,1.755448 l 0.445967,1.192692 0.02997,1.317232 c 0.01693,0.724552 0.03327,2.16588 0.03721,3.203422 l 0.0072,1.88619 -0.247013,0.560689 c -0.136112,0.308053 -0.28432,0.587629 -0.328662,0.622185 -0.04432,0.03456 -0.138046,0.514575 -0.20929,1.066601 l -0.130741,1.00459 0.01912,-1.161686 c 0.0102,-0.638464 -0.01013,-1.147166 -0.04548,-1.128613 -0.03541,0.01855 -0.818455,0.53909 -1.738912,1.160135 -0.920457,0.621024 -1.906945,1.262716 -2.193148,1.425753 -1.065469,0.606553 -1.084688,0.6259 -1.084688,1.098124 0,0.342446 -0.05985,0.464087 -0.251664,0.514181 -0.313168,0.08187 -0.311485,0.100741 0.02274,0.435115 l 0.271819,0.271818 -0.109038,0.04289 c 0.317548,0.207994 0.639035,0.409913 0.964282,0.605648 0.644776,0.372271 1.30325,0.720297 1.97404,1.043347 0.670758,0.323064 1.353365,0.620929 2.046387,0.892969 0.693185,0.272004 1.396305,0.517985 2.107882,0.737422 0.711528,0.219581 1.431025,0.41247 2.156974,0.57826 0.725792,0.165617 1.457526,0.304035 2.193664,0.414961 0.736285,0.11101 1.476465,0.194439 2.218986,0.250114 0.113318,0.005 0.226664,0.0093 0.340031,0.01292 0.02325,-0.06744 0.08533,-0.08937 0.176734,-0.05426 0.103504,0.03966 0.188102,0.01604 0.188102,-0.05168 0,-0.06957 0.300356,-0.110799 0.685746,-0.09457 0.377051,0.01623 0.62573,0.0664 0.552421,0.111621 -0.06053,0.03743 -0.09364,0.08856 -0.10697,0.144694 0.13174,0.0059 0.263518,0.01086 0.395325,0.01499 0.289013,-0.0067 0.577915,-0.01751 0.866614,-0.03256 0.07303,-0.139714 0.243225,-0.145032 0.451652,-0.01705 0.304529,-0.0067 0.60894,-0.01808 0.913122,-0.03411 0.304366,-0.02961 0.60826,-0.06389 0.911572,-0.102836 -0.0156,-0.07228 -0.03165,-0.140393 -0.04909,-0.188619 -0.111041,-0.307057 -0.112955,-0.488456 -0.0072,-0.720369 0.152299,-0.33426 0.361618,-0.33744 1.096574,-0.01395 0.361685,0.158863 0.992282,0.127538 1.254704,-0.06356 0.06899,-0.05033 0.704799,-0.276749 1.412833,-0.503328 l 1.28726,-0.412378 0.627869,-0.61805 c 0.345349,-0.339942 0.595206,-0.668945 0.556038,-0.732255 -0.09611,-0.155384 0.315188,-1.00375 0.526066,-1.084689 0.09265,-0.03548 0.168982,-0.13332 0.168982,-0.217041 0,-0.2706 -3.154721,-3.208073 -3.445267,-3.208073 -0.05193,0 -0.262658,-0.14165 -0.467672,-0.314192 -0.205013,-0.172314 -0.453172,-0.312643 -0.551388,-0.312643 -0.09822,0 -0.178283,-0.05239 -0.178283,-0.115238 0,-0.176952 -2.239532,-1.217069 -2.9962,-1.392163 -0.371327,-0.08581 -0.786343,-0.268546 -0.922941,-0.405144 L 85.49866,85.210821 85.951863,84.81653 c 0.24961,-0.216606 0.453188,-0.454205 0.452685,-0.52865 -4.5e-4,-0.07444 0.60644,-0.735169 1.348238,-1.467093 1.337632,-1.319876 1.850675,-1.766908 4.986776,-4.348056 0.62104,-0.51114 1.242781,-1.048989 1.380794,-1.195792 0.138013,-0.146802 0.872375,-0.824593 1.631425,-1.505335 2.327427,-2.08733 3.317123,-3.220256 3.321761,-3.801318 0.0026,-0.30265 -0.186566,-0.383288 -0.290938,-0.12454 -0.03481,0.08627 -0.07144,-0.04162 -0.08165,-0.283187 -0.01461,-0.343235 -0.04017,-0.38478 -0.115238,-0.192753 -0.0772,0.19736 -0.111342,0.147507 -0.17725,-0.251664 -0.04508,-0.273034 -0.08298,-0.705322 -0.08372,-0.960148 -7.6e-4,-0.254829 -0.262517,-0.904855 -0.262517,-0.904855 L 97.922188,68.79425 c -0.04448,-0.144481 -0.145373,-0.246964 -0.375171,-0.305407 0.591385,-4.685546 2.043068,-5.434972 0.855762,-18.255217 l 0.276469,-0.555005 0.276986,-0.553454 -0.148828,-0.326078 c -0.08161,-0.179039 -0.18419,-0.326079 -0.228927,-0.326079 -0.465812,0 -1.005636,-2.031468 -1.010274,-3.803902 -0.0028,-1.024995 -0.500138,-4.101193 -0.814938,-5.040519 -0.07909,-0.235997 -0.193122,-0.519761 -0.31936,-0.817521 -0.586131,-1.382528 -1.572127,-3.226456 -2.0283,-3.723287 -1.592945,-1.750407 -3.572392,-3.803902 -3.572392,-3.803902 -0.224515,0.0022 -0.665075,-0.347758 -0.665075,-0.52865 0,-0.131032 -0.05593,-0.203386 -0.125057,-0.160714 l -0.992188,-0.734839 c 0.140402,0.38614 0.004,0.448514 -0.379822,0.175183 -0.43393,-0.308978 -1.737873,-0.88315 -2.004012,-0.88315 -0.11408,0 -0.318127,-0.07798 -0.454235,-0.172599 -0.136112,-0.09478 -0.444747,-0.214415 -0.686264,-0.266134 -0.241514,-0.05181 -0.710359,-0.230941 -1.041796,-0.397908 -0.33144,-0.167026 -0.924121,-0.36356 -1.317233,-0.43615 -0.393105,-0.07259 -0.750584,-0.188975 -0.793233,-0.257865 -0.104733,-0.169345 -1.612691,-0.327119 -3.506763,-0.367936 z"
           sodipodi:nodetypes="ccccccscscccccccscsccccccccccccccssscccccccccccccscccccccccccccsccccccccscccccsccsscsscsccccssscsccsccccccccscssccscccscccsccc" /><path
           id="path3634"
           style="fill:#ccaaff;stroke-width:0.125463"
           d="m 68.321928,91.309672 a 29.8594,29.8594 0 0 0 1.659847,0.984953 29.8594,29.8594 0 0 0 1.905827,0.953947 29.8594,29.8594 0 0 0 1.969389,0.815454 29.8594,29.8594 0 0 0 2.022098,0.673344 29.8594,29.8594 0 0 0 2.065507,0.527099 29.8594,29.8594 0 0 0 2.097547,0.378272 29.8594,29.8594 0 0 0 1.732711,0.186552 c 0.01702,-0.01681 0.03264,-0.03355 0.05323,-0.05064 0.25476,-0.211438 0.237606,-0.496559 -0.03152,-0.525549 -0.120758,-0.01299 0.288979,-0.05889 0.910022,-0.101803 l 1.12913,-0.07803 -0.972551,-0.02377 c -0.548779,-0.01322 -0.972034,-0.0781 -0.972034,-0.148828 0,-0.06912 0.05606,-0.125573 0.125057,-0.125573 0.13817,0 0.174036,-0.536987 0.04444,-0.666626 -0.184512,-0.184513 -0.251351,-1.734594 -0.104386,-2.421041 0.06862,-0.320415 0.0399,-0.401309 -0.160197,-0.453719 -0.154644,-0.04042 -0.274679,-0.218293 -0.329179,-0.487826 -0.07023,-0.347339 -0.03586,-0.465432 0.189652,-0.649573 0.191911,-0.156539 0.301909,-0.182275 0.362769,-0.08371 0.05916,0.09578 0.112214,0.07715 0.163814,-0.05736 0.04194,-0.109232 0.198784,-0.198438 0.348299,-0.198438 0.149517,0 0.397412,-0.135686 0.550871,-0.301273 0.153456,-0.165657 0.385772,-0.328335 0.516248,-0.361735 0.170855,-0.04383 0.142397,-0.06385 -0.100769,-0.07545 -0.1857,-0.0081 -0.367587,-0.06344 -0.404627,-0.123507 -0.03705,-0.05983 -0.288605,-0.144445 -0.558622,-0.187585 -0.289918,-0.04636 -0.523901,-0.16428 -0.571541,-0.288355 -0.183137,-0.477189 0.901066,-0.598192 1.223181,-0.136425 0.153156,0.219626 0.198505,0.237072 0.203605,0.07751 0.0036,-0.112827 0.151525,-0.300554 0.328662,-0.416512 0.249611,-0.1635 0.290292,-0.249074 0.181384,-0.380338 -0.209282,-0.252093 0.204841,-0.305299 0.802019,-0.102836 0.569037,0.192953 0.65294,0.157064 0.437699,-0.187586 -0.24517,-0.392563 0.07605,-0.598958 1.082105,-0.696598 0.534751,-0.05195 0.808837,-0.0412 0.703316,0.02791 -0.267309,0.175213 -0.04518,0.392774 0.399459,0.390674 0.399133,-0.0019 0.74543,-0.142651 0.72502,-0.294556 -0.0059,-0.0441 0.03019,-0.06481 0.0801,-0.04858 0.04998,0.01723 0.0763,0.144164 0.05891,0.282154 -0.0242,0.191122 0.09586,0.301216 0.504878,0.46147 0.871455,0.341612 1.309607,0.396609 1.394747,0.174667 0.08015,-0.209003 -0.256152,-0.449992 -0.503845,-0.360702 -0.08158,0.02948 -0.213269,-0.06753 -0.292489,-0.215491 -0.13315,-0.248775 -0.942887,-0.701075 -1.159102,-0.647505 -0.05174,0.01276 -0.09405,-0.0314 -0.09405,-0.09819 0,-0.06677 -0.493816,-0.271023 -1.097608,-0.454235 -0.603792,-0.183098 -1.257653,-0.414691 -1.452624,-0.514181 l -0.3545,-0.180867 -0.309542,0.333829 c -0.243704,0.262324 -0.380013,0.316261 -0.641305,0.250631 -0.18255,-0.04583 -0.396977,-0.171835 -0.476456,-0.280603 -0.1092,-0.149356 -0.257523,-0.176734 -0.607199,-0.111104 -0.552392,0.103643 -0.502905,0.264665 0.116789,0.380855 0.247304,0.04638 0.628758,0.194045 0.84801,0.327629 0.219244,0.133745 0.54012,0.248614 0.712618,0.253214 0.172476,0.0058 0.239625,0.0403 0.149345,0.07648 -0.09028,0.03595 -1.057636,-0.03249 -2.149739,-0.151928 l -1.985926,-0.217041 -0.547253,0.364835 c -0.301224,0.200677 -0.692263,0.437476 -0.868681,0.526066 -0.17643,0.08868 -0.52601,0.349179 -0.776697,0.578776 -0.250684,0.22962 -0.483714,0.389567 -0.518314,0.355017 -0.124288,-0.124284 -2.10334,2.038866 -2.487704,2.719214 -0.763693,1.35179 -1.097391,2.07893 -1.100191,2.396236 -0.0035,0.400194 -0.292782,0.813737 -0.485758,0.694532 -0.08354,-0.05162 -0.145366,-0.417109 -0.146245,-0.866097 -8.93e-4,-0.427212 -0.121629,-1.482514 -0.2682,-2.345077 -0.146569,-0.862564 -0.292165,-2.14731 -0.323495,-2.854606 -0.03133,-0.707296 -0.08535,-1.28571 -0.120406,-1.28571 -0.129444,0 -1.634737,0.954473 -2.50734,1.590084 -0.494943,0.360536 -1.183062,0.803541 -1.529106,0.984436 -0.346044,0.18094 -0.682715,0.395804 -0.748275,0.476974 -0.174356,0.216145 -0.245064,1.208789 -0.122473,1.716174 0.01935,0.08012 0.05393,0.197466 0.08165,0.298173 z" /><path
           id="path3632"
           style="fill:#ccaaff;stroke-width:0.125463"
           d="m 78.697522,26.964246 c -1.472457,-0.01447 -1.80533,0.08782 -3.86178,0.798917 -1.360345,0.470444 -2.112489,0.622232 -1.884123,0.380856 l -0.595829,0.649056 c 0,0.207053 -0.740246,0.858467 -1.069185,0.941027 -0.171119,0.04314 -0.311092,0.123888 -0.311092,0.179318 0,0.05545 -0.360815,0.357978 -0.802019,0.672827 -0.441201,0.314824 -1.091162,0.935898 -1.444356,1.37976 -0.353192,0.443864 -0.825087,0.969653 -1.048515,1.168405 -1.074499,0.956117 -2.957896,3.777026 -3.368269,5.044653 -0.08036,0.248243 -0.300282,0.762004 -0.488343,1.141532 -0.188065,0.37953 -0.380354,0.915633 -0.427364,1.191659 -0.04702,0.276003 -0.217092,0.897245 -0.378271,1.380277 -0.222468,0.666689 -0.32946,1.406985 -0.442867,3.073715 l -0.04806,0.7059 -0.101286,1.489831 0.199471,1.975073 c 0.217347,2.156975 0.413552,3.307053 0.805119,4.711858 0.188318,0.675638 0.215991,0.928181 0.104903,0.962731 -0.08283,0.02597 -0.357587,0.110413 -0.610299,0.188103 -0.252712,0.0776 -0.609579,0.291746 -0.793233,0.475423 l -0.33383,0.33383 0.08061,0.757576 c 0.144247,1.35601 0.421436,2.628029 0.698149,3.204456 0.149066,0.31051 0.492189,1.021558 0.762744,1.580265 0.270556,0.558729 0.686726,1.574421 0.924491,2.257227 0.237764,0.682805 0.49002,1.261016 0.56069,1.284676 0.07068,0.02342 0.128157,0.113144 0.128157,0.198954 0,0.08593 0.170913,0.414289 0.379822,0.729671 0.46363,0.69985 1.079768,1.034164 1.565279,0.849561 0.430547,-0.163686 0.470933,-0.132802 0.953947,0.723986 l 3.152043,3.773713 c 0.04174,-0.120825 0.157286,0.269968 0.195556,0.269968 0.119608,0 0.52865,0.409267 0.52865,0.529167 0,0.06273 0.138007,0.416628 0.306958,0.785998 0.16895,0.369373 0.475456,1.170193 0.681096,1.779737 0.205626,0.609519 0.580904,1.672582 0.833541,2.362646 0.677297,1.849942 0.81287,2.315456 0.81287,2.78381 0,0.844242 0.894119,2.183616 1.952335,2.924886 1.563582,1.09529 2.930214,1.916418 3.442684,2.068091 0.172512,0.05114 0.483391,0.168149 0.690397,0.260449 0.207013,0.09216 0.573938,0.224412 0.815455,0.293522 v 5.17e-4 c 0.464033,0.132888 0.836834,0.112166 1.756482,-0.09819 0.310519,-0.07097 0.818609,-0.133092 1.12913,-0.135392 l 0.564306,-0.0067 1.944584,-1.892907 c 1.069573,-1.040975 2.34005,-2.210873 2.823084,-2.599842 0.483032,-0.388968 1.273722,-1.047436 1.756999,-1.46296 0.483276,-0.415521 1.160554,-0.979645 1.505334,-1.254187 0.34478,-0.274517 0.909162,-0.7852 1.254187,-1.134814 0.345024,-0.34959 0.850579,-0.818462 1.122929,-1.041797 0.60191,-0.493469 1.943006,-1.774823 2.201933,-2.103747 l 0.188619,-0.239262 -0.251148,0.183968 c -0.277181,0.203274 -2.613637,2.297521 -3.011185,2.69906 -0.502961,0.508009 -2.002437,1.695502 -2.128553,1.686202 -0.07131,-0.0053 -0.06223,-0.03717 0.02015,-0.0708 0.08228,-0.03363 0.114694,-0.151091 0.07235,-0.261483 -0.05244,-0.13683 -0.02824,-0.170463 0.07545,-0.106453 0.189103,0.116886 0.549915,-0.164831 0.471805,-0.368453 -0.06783,-0.176766 0.407206,-0.625552 0.663009,-0.626318 0.09785,-4.64e-4 0.200777,-0.0849 0.228927,-0.188103 l 0.05116,-0.187585 -0.132808,0.188102 c -0.09854,0.13938 -0.133476,0.145468 -0.134876,0.02326 -0.0011,-0.09075 0.267589,-0.429635 0.59738,-0.752926 0.342774,-0.336023 0.581965,-0.676507 0.558105,-0.794784 -0.02653,-0.131494 0.03484,-0.199702 0.168982,-0.188102 0.134528,0.01183 0.229483,-0.0942 0.261483,-0.292488 0.02762,-0.171038 0.105063,-0.365512 0.172083,-0.432532 0.06703,-0.06702 0.118088,-0.322436 0.113688,-0.567407 l -0.0078,-0.445451 -0.113688,0.282153 c -0.06549,0.162851 -0.221303,0.282153 -0.368453,0.282153 -0.14729,0 -0.254765,0.08291 -0.254765,0.195854 0,0.107586 -0.05751,0.160159 -0.12764,0.116789 -0.07018,-0.04337 -0.100136,-0.12321 -0.06666,-0.17725 0.03346,-0.05422 -0.07922,-0.162146 -0.250631,-0.240296 l -0.311609,-0.14211 0.0801,0.31936 c 0.05921,0.235858 0.0083,0.386379 -0.194303,0.575159 l -0.274402,0.255798 0.08733,-0.465087 0.08733,-0.465605 -0.466638,0.453202 c -0.25655,0.249124 -0.511344,0.452686 -0.566374,0.452686 -0.05503,0 -0.132779,0.12485 -0.172599,0.276985 -0.03982,0.152372 -0.11024,0.239134 -0.15658,0.192754 -0.04632,-0.04634 -0.339907,0.06558 -0.652156,0.248563 l -0.567408,0.33228 0.07131,-0.531234 0.07131,-0.531234 -0.179317,0.148312 c -0.09854,0.08177 -0.169443,0.268053 -0.157613,0.413928 0.04475,0.550037 -0.01279,0.654505 -0.360701,0.647505 -0.244484,-0.0042 -0.354262,-0.07803 -0.381372,-0.256831 l -0.03824,-0.250631 0.181384,0.226859 c 0.206546,0.258888 0.38766,0.09057 0.279053,-0.259415 -0.04162,-0.134164 0.07611,-0.382513 0.305408,-0.643372 0.352211,-0.400725 0.551351,-1.267942 0.248047,-1.080554 -0.06902,0.04263 -0.125574,0.152026 -0.125574,0.243396 0,0.09147 -0.11591,0.196467 -0.257866,0.233577 -0.213244,0.05566 -0.232433,0.03618 -0.10852,-0.113171 0.118899,-0.143254 0.102265,-0.233454 -0.08113,-0.436149 -0.191051,-0.211089 -0.204861,-0.297893 -0.07906,-0.499194 0.174895,-0.279922 0.156923,-0.28824 -0.280603,-0.121957 -0.239335,0.09114 -0.321944,0.08226 -0.321944,-0.03462 0,-0.08646 -0.107796,-0.249826 -0.239779,-0.362769 l -0.240295,-0.205155 -0.07906,0.31626 c -0.08239,0.328159 -0.0847,0.32847 -0.946196,0.104903 -0.172511,-0.04476 -0.539435,-0.115013 -0.815454,-0.156063 -0.558183,-0.083 -1.066601,-0.363066 -1.066601,-0.587561 0,-0.246758 0.666857,-0.572528 0.90227,-0.4408 0.144852,0.08093 0.267237,0.05572 0.406177,-0.0832 0.270901,-0.270925 0.139221,-0.429948 -0.356567,-0.429948 H 86.946114 L 86.848446,69.588 c -0.168208,-1.673918 -0.165362,-1.700372 0.217557,-1.885673 0.189758,-0.09186 0.345199,-0.216168 0.345199,-0.276468 0,-0.0603 0.07716,-0.187247 0.171566,-0.281637 0.603584,-0.603582 0.104008,-1.351855 -0.902788,-1.351855 -0.396224,0 -0.673973,-0.06751 -0.774112,-0.188103 -0.217773,-0.262271 -0.538269,-0.234321 -0.723987,0.06305 -0.08619,0.137918 -0.226456,0.25008 -0.312126,0.24908 -0.107097,-0.0014 -0.09965,-0.0376 0.02377,-0.115755 0.239964,-0.151677 -0.612171,-0.317968 -0.999939,-0.19482 -0.188502,0.05983 -0.249999,0.04375 -0.191719,-0.05064 0.04722,-0.07653 0.244767,-0.13901 0.439249,-0.13901 0.194494,0 0.424147,-0.08467 0.510047,-0.188102 0.0859,-0.103666 0.287002,-0.188102 0.447001,-0.188102 0.159985,0 0.325803,-0.05646 0.368453,-0.125574 0.04265,-0.06911 0.229267,-0.126658 0.414962,-0.128158 0.425463,-0.0035 1.301122,-0.396277 1.640726,-0.735872 0.142364,-0.142419 0.415684,-0.291929 0.607198,-0.332279 0.191518,-0.04035 0.446026,-0.126263 0.565857,-0.191203 0.119822,-0.06494 0.317564,-0.118515 0.43925,-0.119373 0.121696,-8.35e-4 0.469405,-0.143537 0.772563,-0.316776 0.303154,-0.17319 0.579909,-0.286168 0.614949,-0.251148 0.03504,0.03502 0.136511,-0.03433 0.225309,-0.153996 l 0.161231,-0.217557 0.164848,0.209289 c 0.18913,0.240733 1.06878,0.390318 1.185457,0.201538 0.04866,-0.07862 0.403084,-0.09474 0.939478,-0.04186 l 0.860929,0.08475 0.113171,-0.289388 c 0.06222,-0.159419 0.180615,-0.544218 0.263033,-0.854728 0.08242,-0.310536 0.286909,-0.854224 0.454236,-1.208195 0.279781,-0.591849 0.443168,-1.646612 0.445968,-2.875277 0.0016,-0.689855 -0.656785,-1.598829 -1.651579,-2.279964 -0.310521,-0.21262 -0.730089,-0.561321 -0.93276,-0.775147 -0.202671,-0.213803 -0.430165,-0.389123 -0.505395,-0.389123 -0.167176,0 -0.820105,-0.726609 -0.820105,-0.912606 0,-0.07373 -0.08534,-0.228956 -0.190169,-0.344682 l -0.190686,-0.210323 0.251664,-0.803052 c 0.138421,-0.441636 0.252338,-0.957635 0.253214,-1.146183 8.91e-4,-0.188571 0.142158,-0.499016 0.314193,-0.68988 0.172033,-0.19096 0.482978,-0.587287 0.690914,-0.880567 0.207926,-0.293235 0.455734,-0.532784 0.550354,-0.532784 0.09462,0 0.242245,-0.08467 0.328145,-0.188102 0.0859,-0.103665 0.312654,-0.188619 0.503846,-0.188619 0.193237,0 0.379472,-0.08351 0.419612,-0.188102 0.03971,-0.103434 0.153311,-0.188102 0.252181,-0.188102 0.269787,0 0.712753,-0.84 0.683163,-1.295529 -0.01423,-0.219113 -0.156249,-0.57292 -0.315227,-0.786515 -0.158983,-0.213525 -0.288871,-0.483541 -0.288871,-0.599963 0,-0.116515 -0.109219,-0.252161 -0.242362,-0.301791 -0.13315,-0.04956 -0.415573,-0.329962 -0.627869,-0.623217 -0.30047,-0.415153 -0.341154,-0.533301 -0.183451,-0.533301 0.151792,0 0.18335,-0.07617 0.12609,-0.304374 -0.05652,-0.22533 -0.01934,-0.319916 0.143144,-0.363286 l 0.219625,-0.05891 -0.282154,-0.09043 c -0.305061,-0.09801 -0.362789,-0.247789 -0.146761,-0.381372 0.07456,-0.04611 0.101052,-0.221216 0.05891,-0.389123 -0.07856,-0.313017 -0.66266,-1.047482 -0.833025,-1.047482 -0.05229,0 -0.26342,-0.154976 -0.469222,-0.344681 -0.954151,-0.87977 -1.131249,-0.966574 -2.906799,-1.419552 -1.13307,-0.288966 -1.303061,-0.297847 -1.213363,-0.06408 0.05398,0.140754 -0.04307,0.169746 -0.456819,0.137976 -0.716263,-0.05494 -1.734268,-0.300069 -1.934249,-0.466121 -0.121259,-0.100649 -0.223451,-0.08259 -0.38964,0.0677 -0.173707,0.157235 -0.259317,0.169572 -0.374138,0.05478 -0.114824,-0.114722 -0.148828,-0.114688 -0.148828,0.0016 0,0.08279 -0.136572,0.150379 -0.30334,0.150379 -0.166769,0 -0.326594,0.04285 -0.355534,0.09457 -0.02902,0.05195 -0.03331,0.01812 -0.0098,-0.07441 0.02349,-0.09258 -0.06862,-0.197581 -0.204639,-0.233061 -0.136007,-0.03555 -0.281537,-0.171738 -0.322977,-0.302307 -0.04142,-0.130452 -0.133055,-0.237195 -0.203605,-0.237195 -0.314698,0 -0.598864,-0.576949 -0.603064,-1.223181 -0.0023,-0.362276 -0.06071,-0.658875 -0.129708,-0.658875 -0.06902,0 -0.125574,-0.112642 -0.125574,-0.25063 0,-0.05846 0.01149,-0.110178 0.02842,-0.152963 0.02303,-0.05821 0.05738,-0.09819 0.09715,-0.09819 0.06902,0 0.125574,-0.142945 0.125574,-0.31781 0,-0.174934 0.09045,-0.456787 0.201538,-0.626318 0.255669,-0.390198 0.147251,-0.68678 -0.251665,-0.68678 -0.224792,0 -0.320152,-0.07668 -0.349332,-0.282153 -0.03011,-0.21204 -0.188523,-0.331933 -0.636654,-0.480591 -0.328121,-0.108815 -0.558473,-0.235774 -0.512113,-0.282154 0.04636,-0.04615 -0.05957,-0.08423 -0.235128,-0.08423 -0.175562,0 -0.389523,-0.08467 -0.475423,-0.188102 -0.120596,-0.145184 -0.454856,-0.188103 -1.467094,-0.188103 -0.998018,0 -1.355857,-0.04529 -1.499134,-0.188619 -0.260433,-0.260435 -1.260895,-0.310793 -1.71514,-0.0863 -0.852713,0.421389 -1.495153,0.651123 -1.820561,0.651123 -0.202462,0 -0.671182,0.135455 -1.041797,0.301273 -0.681824,0.304763 -2.005059,0.534821 -2.240173,0.389641 -0.259105,-0.160138 0.114381,-0.564097 0.535368,-0.580327 0.221845,-0.0079 0.302742,-0.04086 0.179317,-0.07286 -0.180575,-0.04692 -0.125742,-0.129546 0.28112,-0.424264 0.278079,-0.201373 0.551111,-0.366386 0.606681,-0.366386 0.05557,0 0.211443,-0.08558 0.346232,-0.190169 0.867252,-0.672368 1.622979,-1.184344 1.943551,-1.317232 0.204217,-0.08449 0.371553,-0.191505 0.371553,-0.237195 0,-0.102322 1.082063,-0.655878 1.988509,-1.016992 1.901212,-0.757553 7.309365,-0.650604 9.867615,0.19482 1.280607,0.423198 2.896259,1.215304 3.455086,1.693953 0.23894,0.204735 0.504929,0.345343 0.591179,0.312643 0.08625,-0.0327 0.156579,0.01054 0.156579,0.09612 0,0.08548 0.386203,0.549325 0.857829,1.030945 0.843244,0.861148 1.823376,2.230171 1.69137,2.362129 -0.03701,0.03701 0.04529,0.225963 0.182934,0.419613 0.221986,0.312448 0.582344,1.278208 0.834058,2.146122 0.05725,0.02101 0.114442,0.0422 0.171566,0.06356 0.227792,0.08799 0.454496,0.178779 0.680061,0.272335 0.160449,0.06716 0.320307,0.135719 0.479558,0.205672 -0.620333,-1.609468 -1.569382,-3.422 -2.010213,-3.715535 -0.20727,-0.138083 -0.376987,-0.300458 -0.377238,-0.361218 -1.99e-4,-0.06076 -0.18976,-0.373974 -0.421163,-0.696082 l -0.420646,-0.585494 -1.648479,-2.210201 c -0.08101,0.127782 -0.229395,0.107006 -0.709517,-0.0987 -0.567714,-0.446134 -0.567892,-0.446186 -1.848466,-1.12913 -0.0661,0 -0.270036,-0.104866 -0.453202,-0.233577 -0.434107,-0.304784 -1.387577,-0.720399 -1.919263,-0.836125 -0.231464,-0.05042 -0.532582,-0.16893 -0.668693,-0.26355 -0.136112,-0.09462 -0.324329,-0.172082 -0.418579,-0.172082 -0.09424,0 -0.519455,-0.160652 -0.944645,-0.357085 -0.425192,-0.196384 -1.083432,-0.431482 -1.46296,-0.521932 -0.379524,-0.09054 -0.876114,-0.24184 -1.103809,-0.33693 -0.274196,-0.114336 -1.079229,-0.186467 -2.383834,-0.212907 -0.265209,-0.0054 -0.499166,-0.0098 -0.709517,-0.01188 z m 3.958931,11.512992 c 0.270559,-0.01163 0.505148,0.228364 0.467672,0.518831 -0.01858,0.14395 0.0093,0.329979 0.06149,0.413929 0.05252,0.08432 -0.03079,0.393174 -0.186035,0.690397 -0.154404,0.295645 -0.266814,0.607744 -0.250114,0.694014 0.0168,0.08616 -0.127108,0.354232 -0.319877,0.595829 -0.25123,0.314965 -0.450351,0.43925 -0.703316,0.43925 -0.260975,0 -0.347199,0.05728 -0.330729,0.219625 0.0123,0.120758 0.0156,0.375118 0.0078,0.564823 -0.02051,0.489806 -0.17941,0.428168 -0.484208,-0.188102 -0.344216,-0.695931 -0.472976,-1.42495 -0.311609,-1.766817 0.07068,-0.149748 0.222695,-0.485395 0.337447,-0.746208 0.114756,-0.260833 0.275551,-0.465086 0.357601,-0.455786 0.420354,0.05234 0.604339,-0.02291 0.560689,-0.230477 -0.05023,-0.238757 0.290414,-0.605669 0.675928,-0.728121 0.03943,-0.01251 0.07865,-0.01952 0.117305,-0.02119 z m -0.684196,7.870321 c 0.166168,-0.0013 0.669642,0.583102 1.298629,1.507401 0.460821,0.677192 1.062099,1.42518 1.380278,1.717208 0.57684,0.529415 1.304154,1.03973 1.48208,1.03973 0.11221,0 0.50232,0.06935 0.866614,0.153996 0.492476,0.114495 0.662491,0.211365 0.662491,0.376721 0,0.122447 0.05411,0.222208 0.120407,0.222208 0.06632,0 0.239339,0.127003 0.384472,0.282154 l 0.264067,0.282153 -0.353467,0.07958 c -0.194197,0.0436 -0.585925,0.08475 -0.870748,0.09405 -0.646232,0.01853 -0.960574,0.317418 -0.599963,0.570508 0.739297,0.518886 0.835133,0.65246 0.849043,1.182873 0.01684,0.642082 -0.141964,0.767089 -0.946712,0.750859 -0.491627,-0.01051 -0.698057,0.06595 -1.254704,0.464054 -0.36642,0.262065 -0.725,0.537686 -0.79685,0.612366 v -5.17e-4 c -0.07185,0.07463 -0.326155,0.316083 -0.564824,0.536401 l -0.433565,0.40101 -0.371037,-0.212907 c -0.204082,-0.116883 -0.430356,-0.255582 -0.502294,-0.307992 -0.711544,-0.51935 -0.820622,-0.642518 -0.820622,-0.925525 0,-0.172058 -0.06025,-0.42523 -0.133842,-0.562756 -0.07359,-0.13748 -0.153794,-0.495678 -0.178284,-0.796334 -0.0245,-0.300655 -0.13431,-0.683899 -0.243913,-0.851111 l -0.198954,-0.303857 0.08113,-1.808159 c 0.04471,-0.99443 0.08738,-2.235634 0.09508,-2.758488 l 0.01395,-0.950846 0.313676,-0.396875 c 0.172513,-0.218371 0.378745,-0.397259 0.457853,-0.397908 z m 5.466333,14.036869 0.390158,0.03824 0.390157,0.03824 0.111621,0.47439 c 0.09108,0.387664 0.154888,0.460918 0.348816,0.399458 0.19777,-0.06276 0.237711,-0.01097 0.237711,0.309542 0,0.25847 -0.06222,0.38499 -0.188619,0.38499 -0.1035,0 -0.188102,0.0454 -0.188102,0.101286 0,0.05582 -0.07744,0.20786 -0.172599,0.337963 l -0.173116,0.236678 -0.344682,-0.225826 c -0.283397,-0.18553 -0.364246,-0.195655 -0.455786,-0.05581 -0.0613,0.09353 -0.08785,0.268812 -0.05891,0.38964 0.05524,0.230524 -0.16605,0.296816 -0.369487,0.110588 -0.207193,-0.189591 -1.031377,-0.01479 -1.096057,0.232544 -0.04488,0.171594 -0.24192,0.246116 -0.838192,0.315226 -0.518374,0.06007 -0.826317,0.04395 -0.918807,-0.04858 -0.189382,-0.189243 -0.340031,-0.175012 -0.340031,0.03256 0,0.349776 -1.675713,0.451396 -1.865002,0.113172 l -0.12144,-0.217041 -0.22996,0.200504 v -5.17e-4 c -0.126415,0.11002 -0.378989,0.235396 -0.561206,0.278536 -0.262503,0.06227 -0.373302,0.01474 -0.533301,-0.229443 -0.253608,-0.387091 -0.25571,-0.727758 -0.0072,-1.208195 0.155771,-0.301069 0.250174,-0.359899 0.470772,-0.294039 0.151675,0.04539 0.362557,0.192264 0.468705,0.326078 0.221769,0.279574 0.371554,0.191105 0.371554,-0.219108 0,-0.376235 0.563769,-0.804551 1.052132,-0.799951 0.432206,0.0045 0.823902,0.243022 0.841292,0.512114 0.0062,0.09599 0.06089,0.0039 0.12144,-0.204122 0.114497,-0.393399 0.672906,-0.813387 1.081588,-0.813387 0.129259,0 0.358976,0.08648 0.510046,0.192236 l 0.274402,0.192236 0.255281,-0.254764 c 0.301593,-0.301696 0.664487,-0.329384 0.882117,-0.06718 0.221661,0.267167 0.292815,0.238206 0.484725,-0.195337 z"
           sodipodi:nodetypes="cccccscsccsccccccscccccscscsccccsssscscccccccccssccccccsccccccscccssccscccssccccccccccsccccccccccccccsscccccscccscsccscccscsccccccscssccssccscccccccsscscssccccccscscsscsccsccccssscccccccssccccscssssscssccscsccscccccsccscscssccccccccccccccccssccccccccccccscccsscccccsccscsscccccscsccccccsccccccccsscccccsssscccccsccsccccccccsscscscccccc" /><path
           id="path3630"
           style="fill:#ccaaff;stroke-width:0.125463"
           d="m 96.197746,38.706681 a 29.8594,29.8594 0 0 0 -0.479558,-0.205672 29.8594,29.8594 0 0 0 -0.680061,-0.272335 29.8594,29.8594 0 0 0 -0.171566,-0.06356 c 0.128776,0.444025 0.231553,0.864331 0.268201,1.154452 0.160403,1.269947 1.283899,5.52122 1.635042,6.186702 0.188942,0.358054 0.476764,1.01803 0.639754,1.466577 l 0.296623,0.815971 -0.06305,-0.502295 c -0.03472,-0.276002 -0.125422,-0.784109 -0.201022,-1.12913 -0.07561,-0.345044 -0.157668,-1.089163 -0.182418,-1.653646 -0.05568,-1.270062 -0.38787,-3.634846 -0.640271,-4.556827 -0.102215,-0.373374 -0.252345,-0.800892 -0.421679,-1.240235 z" /><path
           id="path326"
           style="fill:#9955ff;stroke-width:0.125463"
           d="m 93.323503,59.592228 c -0.09293,-0.0095 -0.192007,0.0041 -0.294039,0.04289 -0.602854,0.229361 -1.536007,0.27016 -2.212268,0.09715 -0.424429,-0.10876 -0.867492,-0.139168 -1.189592,-0.08165 -0.282235,0.05033 -0.851526,0.135852 -1.265556,0.189652 -0.414023,0.05381 -0.639791,0.122009 -0.501778,0.151929 0.138011,0.03003 0.346082,0.13916 0.462504,0.242362 0.116398,0.102512 0.263325,0.155462 0.326595,0.116272 0.152647,-0.09434 0.40256,0.470281 0.40256,0.909505 0,0.454671 0.123212,0.567534 0.323494,0.29559 l 0.160714,-0.217558 0.08475,0.220141 c 0.120473,0.310767 -0.0377,0.84646 -0.250114,0.84646 -0.09812,0 -0.21811,0.06401 -0.26665,0.142627 -0.121969,0.197337 0.750158,0.0276 1.295528,-0.252181 0.502555,-0.257843 2.41639,-2.12654 2.41639,-2.359546 0,-0.09114 0.10868,-0.165881 0.241846,-0.165881 0.16223,0 0.3371,0.190046 0.529683,0.575676 0.303221,0.607247 0.433591,0.559129 0.307475,-0.113172 -0.07062,-0.376555 -0.292755,-0.611681 -0.571541,-0.640271 z" /><path
           id="path7463"
           style="fill:#9955ff;stroke-width:0.125463"
           d="M 77.836543 53.586181 C 77.679276 53.584281 76.73543 54.52808 76.645918 54.796443 C 76.619668 54.875153 76.517549 55.032369 76.419059 55.145776 C 76.320569 55.259114 76.195559 55.513472 76.141039 55.710599 C 76.014938 56.166615 76.469192 57.258827 76.960628 57.681538 L 77.303759 57.977128 L 77.296008 57.995731 C 77.313506 57.99692 77.307086 57.99647 77.326497 57.997798 C 77.499203 58.009615 77.745964 58.027045 78.043249 58.048958 C 78.191892 58.059914 78.353076 58.071973 78.52384 58.085131 C 78.694603 58.098289 78.874922 58.112361 79.061791 58.127506 C 79.24866 58.142651 79.442059 58.158649 79.639017 58.175565 C 79.835976 58.192481 80.036398 58.210319 80.23743 58.228792 C 80.438462 58.247264 80.640371 58.266339 80.839461 58.286153 C 81.038551 58.305967 81.234856 58.326707 81.425988 58.347648 C 81.521554 58.358118 81.615693 58.368459 81.708141 58.37917 C 81.761737 58.38538 81.813407 58.39149 81.865755 58.397774 C 81.957511 58.34026 82.072168 58.244363 82.172713 58.137325 C 82.333912 57.96573 82.606494 57.729409 82.778877 57.612292 L 83.092553 57.399385 L 82.493623 57.39215 L 81.894177 57.385949 L 81.781522 57.088293 C 81.714912 56.913173 81.522737 56.755931 81.31385 56.705371 C 79.234214 56.201464 78.699357 56.164561 78.253055 56.494531 C 77.793545 56.835196 77.447922 56.830258 77.20299 56.480578 C 76.801157 55.906867 77.038235 55.215817 77.877884 54.514807 C 78.425655 54.057492 78.53431 53.748445 78.147119 53.748445 C 78.014864 53.748445 77.884414 53.681765 77.857214 53.600134 C 77.854214 53.591134 77.847023 53.586311 77.836543 53.586181 z " /><path
           id="path3621"
           style="fill:#9955ff;stroke-width:0.125463"
           d="m 76.166927,42.450639 c -0.04141,-0.0122 -0.03899,0.02754 0.02481,0.130741 0.04265,0.06911 -0.0351,0.125574 -0.173116,0.125574 -0.138011,0 -0.290004,-0.06339 -0.337964,-0.141077 -0.05676,-0.09254 -0.37712,-0.119805 -0.917257,-0.08062 -0.836575,0.06058 -1.747321,0.391627 -2.458248,0.894002 -0.205604,0.145318 -0.431368,0.268769 -0.501778,0.273369 -0.153283,0.01097 -0.651385,0.215545 -1.527555,0.627868 -0.458618,0.215844 -0.78635,0.496522 -1.128097,0.965316 -0.497642,0.682643 -0.903405,1.08854 -1.096057,1.09554 -0.06091,0.0023 -0.216683,0.1266 -0.346232,0.275953 -0.591291,0.681762 -0.966994,3.121282 -0.888835,5.772774 l 0.02842,0.963249 0.395325,0.196887 c 0.297068,0.14819 0.437438,0.162027 0.56534,0.05581 0.09358,-0.07746 0.663724,-0.158711 1.267106,-0.181901 0.603384,-0.02272 1.209709,-0.05196 1.347722,-0.06356 0.643709,-0.05742 1.460714,0.06521 1.554944,0.233578 0.06731,0.120178 0.451567,0.217177 1.137915,0.286287 0.569856,0.05728 1.067465,0.13565 1.105875,0.17415 v -5.17e-4 c 0.11045,0.110624 0.37863,0.08385 1.138949,-0.114205 1.081469,-0.2818 1.746931,-0.665078 2.84117,-1.635042 0.301996,-0.2677 0.698984,-1.457425 0.941545,-2.823084 0.07967,-0.448524 0.266495,-1.347212 0.415478,-1.997294 0.219253,-0.956699 0.239017,-1.192707 0.102836,-1.238167 -0.09253,-0.03084 -0.364794,-0.246698 -0.605131,-0.480074 -0.240335,-0.233516 -0.503087,-0.424526 -0.583427,-0.424781 -0.218034,-6.96e-4 -0.584977,-0.995508 -0.584977,-1.585432 0,-0.487788 -0.238503,-0.893798 -0.419096,-0.713135 -0.04541,0.0455 -0.0872,-0.05391 -0.0925,-0.220659 l -0.0093,-0.30334 -0.147795,0.407727 -0.148311,0.408244 -0.403076,-0.43925 c -0.237873,-0.259209 -0.429654,-0.4246 -0.498678,-0.444934 z" /><path
           id="path3619"
           style="fill:#9955ff;stroke-width:0.125463"
           d="m 88.738253,39.802222 -1.539958,0.05788 -1.539958,0.05736 -0.304891,0.328662 c -0.346623,0.37408 -0.692981,0.431525 -0.692981,0.115239 0,-0.267747 -0.203014,-0.07187 -0.286804,0.276469 -0.04474,0.185926 -0.06403,0.15945 -0.07493,-0.101803 -0.01906,-0.461582 -0.265616,-0.310374 -0.265616,0.162781 0,0.278137 -0.06425,0.369652 -0.282154,0.400492 -0.208144,0.02957 -0.272496,0.11118 -0.244946,0.311092 0.02057,0.149261 -0.02174,0.307674 -0.09405,0.352434 -0.167529,0.103549 -0.171991,0.904951 -0.0057,1.00769 0.069,0.04244 0.125057,0.01724 0.125057,-0.05581 0,-0.198727 0.275911,-0.103577 0.525033,0.180868 l 0.219625,0.251147 0.0186,-0.376721 c 0.0103,-0.207097 0.04402,-0.280129 0.07493,-0.162781 0.04486,0.17022 0.117751,0.189922 0.361735,0.09715 0.168095,-0.06401 0.305925,-0.07541 0.305925,-0.02532 0,0.04986 0.169196,0.09095 0.376204,0.09095 0.207022,0 0.376721,-0.03145 0.376721,-0.06925 0,-0.110368 0.889321,-0.400553 0.972551,-0.317294 0.120573,0.120573 -0.432067,0.571483 -1.017509,0.830441 -0.644423,0.285069 -1.441405,0.899371 -1.667082,1.284676 -0.776565,1.325839 -0.949228,2.056382 -0.664042,2.811198 0.150876,0.399312 0.722844,1.043347 0.926558,1.043347 0.07405,0 0.27849,0.133069 0.454236,0.296106 0.437827,0.405967 0.786468,0.581123 1.810742,0.908472 0.483034,0.154269 1.16982,0.286338 1.526522,0.290938 0.980593,0.01542 2.171668,-0.327612 2.619479,-0.754476 0.210298,-0.200491 0.436048,-0.365403 0.501778,-0.366903 0.06572,-0.0016 0.260549,-0.119033 0.433048,-0.260966 l 0.313676,-0.258382 -0.376204,0.07493 -0.376205,0.07441 0.243396,-0.190169 c 0.133947,-0.104591 0.310838,-0.190169 0.393258,-0.190169 0.08243,0 0.311868,-0.08387 0.50953,-0.187069 l 0.359151,-0.187586 -0.343648,-5.16e-4 c -0.189023,-4.17e-4 -0.640542,0.112124 -1.003557,0.250114 -0.698302,0.265311 -1.600936,0.336152 -1.600936,0.125573 0,-0.06911 0.0846,-0.125573 0.188103,-0.125573 0.103499,0 0.188102,-0.06304 0.188102,-0.140044 0,-0.07904 -0.110862,-0.111054 -0.251148,-0.07441 -0.146935,0.03827 -0.25063,0.0035 -0.25063,-0.08372 0,-0.153551 1.071629,-0.533324 1.345654,-0.476974 0.08458,0.01739 0.331638,-0.06035 0.548804,-0.172599 0.312615,-0.161646 0.578177,-0.185795 1.276407,-0.115755 l 0.882117,0.08888 -0.07803,-0.203088 c -0.04281,-0.111556 -0.01976,-0.202572 0.05116,-0.202572 0.07087,0 0.09381,-0.05646 0.05116,-0.125574 -0.04265,-0.06911 -0.202423,-0.125573 -0.355534,-0.125573 -0.153101,0 -0.366758,-0.0988 -0.474389,-0.219625 C 92.818978,45.88004 92.5755,45.649972 92.38556,45.489719 l -0.345198,-0.290938 0.08268,0.259932 c 0.04529,0.143045 0.05674,0.259932 0.02532,0.259932 -0.03143,0 -0.544164,-0.141131 -1.139466,-0.313676 -0.595301,-0.172406 -1.319439,-0.313675 -1.609204,-0.313675 h -0.5271 l 0.219625,-0.219625 c 0.179769,-0.179734 0.446418,-0.219625 1.469678,-0.219625 0.687551,0 1.250055,-0.01296 1.250053,-0.02687 -2.6e-5,-0.161066 -0.790897,-0.337732 -1.857251,-0.414962 -0.720309,-0.05195 -1.345226,-0.143201 -1.388546,-0.202571 -0.04332,-0.05942 -0.190676,-0.169853 -0.327112,-0.245463 -0.136435,-0.07553 -0.28,-0.273198 -0.31936,-0.43925 -0.03937,-0.166098 -0.163874,-0.30246 -0.276469,-0.303341 -0.112586,-9.3e-4 -0.246259,-0.04326 -0.297139,-0.09405 -0.05086,-0.05079 0.04407,-0.09357 0.21084,-0.09457 0.224356,-0.0014 0.257729,-0.03055 0.128157,-0.112654 -0.11213,-0.07099 -0.141642,-0.194474 -0.08113,-0.343132 l 0.09457,-0.232027 0.09043,0.242363 c 0.06197,0.166519 0.119478,0.195862 0.182418,0.09405 0.131718,-0.213243 0.453202,-0.183564 0.453202,0.04186 0,0.131155 0.08788,0.172698 0.282153,0.132808 1.227768,-0.251953 1.684972,-0.374007 1.828829,-0.488342 0.09159,-0.07282 0.430487,-0.152717 0.752926,-0.177767 1.053577,-0.0817 1.015126,-0.06878 0.889868,-0.302824 -0.149845,-0.279695 -0.146437,-0.392116 0.0088,-0.296106 0.07039,0.0436 0.09256,-0.0053 0.05116,-0.113171 -0.04009,-0.104478 -0.180491,-0.223877 -0.312126,-0.265617 -0.131633,-0.04188 -0.239779,-0.156999 -0.239779,-0.255799 0,-0.0988 -0.06162,-0.179834 -0.137459,-0.179834 -0.07583,0 -0.330196,-0.09154 -0.56534,-0.203088 -0.326907,-0.15515 -0.468934,-0.168786 -0.602031,-0.05839 -0.134645,0.111852 -0.340104,0.07062 -0.908471,-0.182935 z" /><path
           id="path3615"
           style="fill:#9955ff;stroke-width:0.125463"
           d="m 68.476957,91.401656 a 29.8594,29.8594 0 0 0 1.504818,0.892969 29.8594,29.8594 0 0 0 1.905827,0.953947 29.8594,29.8594 0 0 0 1.969389,0.815454 29.8594,29.8594 0 0 0 2.022098,0.673344 29.8594,29.8594 0 0 0 1.795756,0.45837 c -0.650757,-0.887974 -1.420068,-2.366899 -1.420068,-2.808098 0,-0.120525 -0.137093,-0.308883 -0.304374,-0.418579 -0.167283,-0.109603 -0.340083,-0.313357 -0.384473,-0.453202 -0.04438,-0.139938 -0.151551,-0.254248 -0.237711,-0.254248 -0.166773,0 -0.599343,0.96777 -0.82734,1.850533 -0.102544,0.397087 -0.199921,0.533301 -0.381372,0.533301 -0.296823,0 -0.33777,-0.176591 -0.42323,-1.819527 -0.03589,-0.690066 -0.180963,-1.811444 -0.321944,-2.491838 -0.140991,-0.680394 -0.256315,-1.65814 -0.256315,-2.172994 v -0.93586 l -0.196888,0.196887 c -0.108386,0.108397 -0.461556,0.349139 -0.784448,0.535368 -0.322894,0.186158 -1.009523,0.651908 -1.526005,1.035079 -0.51648,0.383193 -1.250328,0.869226 -1.630908,1.080037 l -0.691948,0.383439 -0.03927,0.537952 c -0.01896,0.260562 0.07495,0.779488 0.22841,1.407666 z" /><path
           id="path6692"
           style="fill:#9955ff;stroke-width:0.125463"
           d="M 75.508003 65.523954 C 75.535385 65.536281 75.56206 65.54879 75.591202 65.561161 C 75.634253 65.579436 75.679664 65.597779 75.726594 65.615938 C 75.773525 65.634097 75.821985 65.65189 75.872839 65.669681 C 75.923693 65.687472 75.976662 65.70522 76.031485 65.722391 C 76.086308 65.739562 76.143181 65.756219 76.202018 65.772517 C 76.231436 65.780667 76.261505 65.788921 76.291935 65.796805 C 76.322365 65.804689 76.352988 65.812473 76.384435 65.82006 C 76.415883 65.827647 76.448083 65.835022 76.480554 65.842281 C 76.513024 65.849539 76.545756 65.856569 76.579256 65.863468 C 76.612755 65.870367 76.647042 65.877115 76.681575 65.883622 C 76.716108 65.890129 76.750905 65.896141 76.786478 65.902225 C 76.822051 65.90831 76.85838 65.914165 76.894999 65.919795 C 76.931617 65.925425 76.96895 65.931188 77.00662 65.936332 C 77.044289 65.941475 77.082098 65.946175 77.120825 65.950801 C 77.159551 65.955427 77.198858 65.959643 77.238647 65.96372 C 77.278435 65.967797 77.318713 65.971592 77.35957 65.975089 C 77.400426 65.978586 77.44218 65.982023 77.48411 65.984908 C 77.52604 65.987792 77.568225 65.990418 77.611234 65.992659 C 77.654243 65.9949 77.697882 65.996777 77.741975 65.998343 C 77.786069 65.999909 77.830633 66.001101 77.875817 66.001961 C 77.921001 66.00282 77.966997 66.00339 78.013277 66.003511 C 78.059556 66.003632 78.105938 66.003126 78.15332 66.002478 C 78.200701 66.001829 78.249008 66.000827 78.297497 65.999377 C 78.345985 65.997927 78.394657 65.995975 78.444258 65.993693 C 78.493859 65.99141 78.544434 65.989088 78.595153 65.985941 C 78.645873 65.982795 78.696789 65.979131 78.748632 65.975089 C 78.800476 65.971047 78.853272 65.966623 78.906245 65.961653 C 78.911032 65.961204 78.915919 65.96056 78.920715 65.960103 C 78.964255 65.916091 79.00554 65.873195 79.05249 65.827294 C 79.10767 65.739395 79.26536 65.667614 79.403373 65.667614 C 79.756183 65.667614 80.418187 65.304635 80.328898 65.160152 C 80.288068 65.094062 80.173066 65.040262 80.073616 65.040262 C 79.650482 65.040262 79.940278 64.810421 80.462223 64.732271 C 80.775382 64.685311 81.241175 64.55723 81.497302 64.447534 C 81.753429 64.337745 82.098214 64.232242 82.263663 64.211372 C 82.429102 64.191422 82.626843 64.109768 82.702913 64.029988 C 82.80715 63.920518 82.733063 63.907912 82.402156 63.979345 C 82.16064 64.031995 81.878307 64.064569 81.774804 64.050659 C 81.671298 64.037199 81.333526 64.02537 81.024462 64.02327 C 80.7154 64.02117 80.40021 63.96795 80.32373 63.904414 C 80.233 63.829114 80.082458 63.897114 79.891198 64.100785 C 79.515839 64.50033 79.347084 64.493737 79.029235 64.067712 C 78.887652 63.877796 78.769952 63.79334 78.767752 63.87961 C 78.761253 64.135596 78.285372 64.05775 78.199312 63.786592 C 78.092181 63.449062 78.210182 63.293584 78.512988 63.372664 L 78.763618 63.438293 L 78.763618 62.93083 C 78.763618 62.455822 79.002549 62.029077 79.268497 62.029077 C 79.329327 62.029077 79.522316 62.093987 79.697412 62.173771 L 80.015738 62.318981 L 80.333548 61.976883 C 80.554798 61.738149 80.754688 61.643635 80.993456 61.666825 C 81.18183 61.684585 81.588761 61.567895 81.898311 61.407409 L 82.461584 61.115437 L 82.202685 61.019836 C 81.911391 60.912088 81.003757 61.055656 80.111856 61.350565 C 79.783778 61.459101 79.444881 61.518337 79.358931 61.482857 C 79.264561 61.443897 79.31387 61.384717 79.483471 61.332995 C 79.838463 61.225085 79.72816 61.025004 79.313456 61.025004 C 79.140935 61.025004 79.030276 61.074254 79.067476 61.134558 C 79.145806 61.261206 78.431921 61.398174 77.681514 61.400174 C 77.375723 61.40087 77.099366 61.478735 77.007136 61.589827 C 76.921237 61.69326 76.720133 61.777929 76.560135 61.777929 C 76.40015 61.777929 76.237487 61.828719 76.198917 61.891101 C 76.084699 62.075913 74.813462 62.757744 74.366988 62.87347 C 73.649474 63.059395 73.612166 63.326213 74.218159 63.943688 C 74.510087 64.241142 74.748876 64.58263 74.748876 64.702299 C 74.748876 64.821919 74.888792 64.98353 75.059968 65.06145 C 75.231154 65.13944 75.408096 65.321877 75.453226 65.466593 C 75.473053 65.486816 75.488857 65.504184 75.508003 65.523954 z " /><path
           id="path6690"
           style="fill:#9955ff;stroke-width:0.125463"
           d="M 64.807364 43.465352 C 64.784254 43.483922 64.761178 43.502522 64.738118 43.521162 C 64.200966 43.986478 63.680597 44.470824 63.178006 44.97327 C 63.003233 45.156245 62.830791 45.341434 62.660725 45.528792 L 62.657108 46.408841 L 62.644189 49.670658 L 62.929443 51.239038 C 63.086418 52.101601 63.323678 53.209044 63.456542 53.699869 C 63.685298 54.544807 63.684058 55.582263 63.454475 55.440332 C 63.28346 55.334648 63.20296 55.765669 63.344405 56.02996 C 63.419874 56.17096 63.43385 56.264312 63.37541 56.237182 C 63.31696 56.210142 63.056608 56.079986 62.797151 55.947794 C 62.071109 55.578237 62.001992 55.758938 62.327929 57.169425 C 62.542784 58.09922 62.647659 58.354597 62.81007 58.342997 C 62.936107 58.333597 63.033747 58.438257 63.058117 58.609647 C 63.080197 58.764868 63.144057 58.892317 63.200227 58.892317 C 63.326728 58.892317 63.453209 58.441488 63.455509 57.982295 C 63.45646 57.792426 63.512869 57.637613 63.580566 57.637613 C 63.801139 57.637613 63.866747 58.262089 63.706656 58.833923 C 63.520724 59.497989 63.606302 60.348893 63.983125 61.589827 C 64.252232 62.475952 64.543742 62.868426 64.768607 62.647644 C 64.919832 62.498943 65.377168 62.492644 65.285888 62.640409 C 65.248438 62.701029 65.307547 62.930832 65.417146 63.150455 C 65.61874 63.554525 65.549864 63.870868 65.334464 63.530277 L 65.217675 63.345792 L 65.215608 63.549914 C 65.210308 64.111568 65.380151 64.520787 65.646073 64.587577 C 66.03164 64.684357 66.207704 65.127647 66.065169 65.643843 C 65.909157 66.208767 66.10527 66.419506 66.788122 66.419506 C 67.372976 66.419506 67.657821 66.659864 67.972029 67.418412 C 68.058949 67.628319 68.17961 67.799784 68.24023 67.799784 C 68.30085 67.799784 68.350301 67.864074 68.350301 67.942928 C 68.350301 68.233725 71.762456 71.933433 72.03483 71.938033 C 72.09453 71.93903 72.432912 72.223578 72.787239 72.570035 C 73.14157 72.916471 73.625243 73.297576 73.861592 73.417012 C 74.097939 73.536356 74.351729 73.743687 74.425899 73.877966 C 74.598791 74.190867 74.675166 74.299354 75.070304 74.792639 C 75.47844 75.302133 75.433639 75.650094 74.96385 75.617395 C 74.564148 75.589635 74.517858 75.763975 74.87445 75.954842 C 75.012457 76.028682 75.125598 76.195489 75.125598 76.325362 C 75.125598 76.455096 75.192838 76.583762 75.274942 76.611132 C 75.375689 76.644712 75.314092 76.857342 75.086323 77.264839 C 74.702902 77.95087 74.666837 78.239986 74.936979 78.464249 C 75.040478 78.550149 75.125598 78.698338 75.125598 78.793428 C 75.125598 78.888518 75.188698 78.966027 75.266157 78.966027 C 75.358897 78.966027 75.366395 79.019407 75.287862 79.122607 C 75.130343 79.329615 75.104982 80.345788 75.257372 80.345788 C 75.322722 80.345788 75.376228 80.440618 75.376228 80.556111 C 75.376228 80.729931 75.322188 80.715269 75.062552 80.471362 C 74.703849 80.134365 74.679201 80.186897 74.921992 80.767985 C 75.315917 81.710791 77.816695 83.702721 79.298469 84.254077 C 79.659956 84.388588 80.238123 84.632092 80.583146 84.795129 C 80.928171 84.958073 81.323115 85.120064 81.461128 85.155314 C 81.599135 85.190094 81.881473 85.196396 82.08848 85.169266 C 82.295495 85.142126 82.959883 85.055363 83.564876 84.976513 L 84.66455 84.833369 L 85.438663 84.094913 C 86.353861 83.221427 86.29907 83.140772 85.308439 83.903194 C 84.872838 84.23845 84.354963 84.508756 83.970536 84.600826 C 83.625512 84.683575 83.128047 84.807898 82.865177 84.876778 C 82.26989 85.03288 81.626369 84.843907 81.288012 84.413757 C 81.156242 84.246244 80.950983 84.108866 80.831709 84.108866 C 80.65849 84.108866 80.644772 84.145276 80.76298 84.287666 C 80.884132 84.433777 80.865219 84.454121 80.659627 84.400321 C 80.449001 84.345241 80.432041 84.296514 80.554724 84.100081 C 80.635193 83.971298 80.759169 83.844931 80.830159 83.818961 C 80.901139 83.793961 80.803838 83.796479 80.614151 83.825679 C 80.349013 83.866729 80.286053 83.836019 80.340783 83.693387 C 80.379923 83.591392 80.351438 83.470647 80.277738 83.425187 C 80.204018 83.379637 80.143896 83.204434 80.143896 83.036063 C 80.143896 82.833531 80.069446 82.724969 79.924271 82.715669 L 79.704646 82.701717 L 79.91807 82.645389 C 80.035598 82.614449 80.166805 82.479143 80.209525 82.344632 C 80.252245 82.210119 80.33464 82.129079 80.39246 82.164799 C 80.761931 82.39321 81.079978 81.709752 80.755228 81.385001 C 80.650374 81.280151 80.689909 81.120874 80.907674 80.768501 C 81.239383 80.23178 81.595777 79.845043 81.759301 79.845043 C 81.819861 79.845043 81.942103 79.757934 82.030602 79.651257 C 82.119112 79.544576 82.262189 79.484772 82.348929 79.517932 C 82.561887 79.599662 82.652787 79.318656 82.652787 78.580004 C 82.652787 78.176148 82.598876 77.959136 82.496207 77.952136 C 82.409947 77.945836 82.524768 77.886796 82.751489 77.821394 C 83.214486 77.687882 83.181722 77.46121 82.699295 77.46121 C 82.208349 77.46121 82.367822 77.051896 82.90135 76.942895 C 83.140597 76.893965 83.356564 76.793299 83.381424 76.718619 C 83.406284 76.643939 83.506917 76.583227 83.604667 76.583227 C 84.00608 76.583227 83.755747 76.209043 83.266186 76.077315 C 82.935013 75.988145 82.727573 75.851558 82.686893 75.695943 C 82.616143 75.425297 82.449244 75.375309 82.373734 75.601892 C 82.346424 75.683292 82.230462 75.7136 82.114318 75.669071 C 81.959841 75.609821 81.923295 75.494486 81.975825 75.231888 C 82.024155 74.99028 81.982925 74.821739 81.848185 74.709956 C 81.738718 74.619026 81.64923 74.488748 81.64923 74.420568 C 81.64923 74.214907 80.635091 73.069746 80.452921 73.069746 C 80.359751 73.069746 80.19897 72.949328 80.095837 72.802062 C 79.992718 72.65482 79.805924 72.528176 79.680875 72.518876 C 79.36881 72.497326 78.750052 72.064474 78.834932 71.927181 C 78.872922 71.865731 78.815911 71.815043 78.708325 71.815043 C 78.600737 71.815043 78.512988 71.765793 78.512988 71.705489 C 78.512988 71.653369 78.359965 71.445053 78.160554 71.217146 C 78.093338 71.193885 78.01773 71.167414 77.935245 71.137565 C 77.851801 71.107368 77.761625 71.07372 77.666011 71.037312 C 77.618204 71.019109 77.56893 71.000124 77.518733 70.980468 C 77.468536 70.960812 77.417407 70.940531 77.365254 70.91949 C 77.313101 70.898449 77.259765 70.876737 77.206091 70.854378 C 77.152416 70.832019 77.098071 70.808742 77.04331 70.785131 C 76.988549 70.761521 76.933358 70.737579 76.877945 70.712784 C 76.822532 70.68799 76.767178 70.662732 76.711547 70.63682 C 76.655917 70.610908 76.600046 70.584201 76.544632 70.557238 C 76.489219 70.530276 76.434029 70.503019 76.379268 70.475073 C 76.324506 70.447127 76.270162 70.418669 76.216487 70.389807 C 76.162812 70.360944 76.109994 70.331669 76.05784 70.301957 C 76.056414 70.301144 76.055132 70.300186 76.053706 70.299373 C 76.005681 70.277171 75.949509 70.244471 75.879557 70.199637 C 75.832639 70.169579 75.802759 70.148841 75.761734 70.122123 C 75.735386 70.104963 75.710567 70.088075 75.686287 70.071997 C 75.32162 69.830504 75.160006 69.690778 74.749393 69.274112 C 74.282605 68.800494 73.700816 68.647339 73.423376 68.92478 C 73.345766 69.00242 73.045629 68.946029 72.585184 68.767683 C 72.023638 68.550286 71.867031 68.43181 71.865331 68.221464 C 71.864131 68.073595 71.943402 67.921585 72.041548 67.884016 C 72.278033 67.793267 72.159896 67.33894 71.780582 66.880977 C 71.619034 66.685913 71.485776 66.488107 71.484476 66.441727 C 71.483176 66.395277 71.284659 66.131225 71.043676 65.8552 C 70.802693 65.579197 70.512362 65.099628 70.398238 64.789115 C 70.284119 64.47858 70.143722 64.171066 70.086112 64.105436 C 70.028502 64.039876 69.981209 63.859631 69.981209 63.704943 C 69.981209 63.550327 69.924639 63.388979 69.855635 63.346309 C 69.655784 63.222791 69.710357 62.690666 69.931599 62.605786 C 70.192933 62.505505 70.069687 61.924669 69.724894 61.632202 C 69.589824 61.517636 69.479431 61.3378 69.479431 61.232743 C 69.479431 61.127662 69.380561 61.01022 69.259806 60.97126 C 69.139048 60.9323 68.944315 60.730843 68.826757 60.523742 C 68.624793 60.167661 68.224727 60.000435 68.224727 60.272078 C 68.224727 60.341188 68.141386 60.397652 68.039208 60.397652 C 67.937023 60.397652 67.817235 60.541505 67.773075 60.717529 C 67.721225 60.92403 67.620297 61.023068 67.488338 60.997098 L 67.283699 60.956791 L 67.283699 58.988952 L 67.283699 57.020597 L 67.067691 56.803556 L 66.851684 56.587032 L 66.65583 57.05522 C 66.548244 57.31267 66.488218 57.567897 66.521988 57.622627 C 66.643096 57.818596 66.622154 58.593736 66.472896 59.456624 C 66.319646 60.34254 66.280976 62.766058 66.413468 63.183528 C 66.460658 63.33219 66.421268 63.408837 66.297196 63.408837 C 66.168643 63.408837 66.112029 63.28743 66.119429 63.026432 C 66.125429 62.816201 66.065179 62.579399 65.985587 62.499849 C 65.905997 62.420259 65.840893 62.261856 65.840893 62.148449 C 65.840893 62.034973 65.700163 61.778317 65.527734 61.577941 C 65.15843 61.148528 65.099068 60.270044 65.40061 59.690718 L 65.587678 59.33105 L 65.525667 54.752001 C 65.448047 49.011029 65.367014 47.482335 65.028539 45.404768 C 64.921116 44.74543 64.849799 44.084257 64.807364 43.465352 z M 68.326529 61.879215 L 68.715136 62.693119 C 68.928729 63.140668 69.103226 63.614789 69.103226 63.746285 C 69.103226 63.877919 69.151237 64.039289 69.20968 64.104919 C 69.26811 64.170459 69.50421 64.70384 69.734712 65.290376 C 70.145072 66.334621 70.465854 66.987119 70.812166 67.482491 C 70.907326 67.618601 70.985282 67.830062 70.985282 67.952746 C 70.985282 68.076819 71.077692 68.175988 71.193021 68.175988 L 71.400244 68.175988 L 71.173384 68.427136 C 70.831467 68.804948 70.613177 68.737563 69.839099 68.017858 C 69.067848 67.300777 68.715184 66.648727 68.168916 64.928125 C 67.813897 63.809944 67.813114 62.869107 68.166849 62.187207 L 68.326529 61.879215 z " /><path
           id="path3611"
           style="fill:#9955ff;stroke-width:0.125463"
           d="m 78.593136,27.111007 c -0.802095,0.0075 -1.526713,0.03787 -1.836581,0.09405 -0.310522,0.05635 -0.741128,0.208038 -0.956531,0.337447 -0.215412,0.129455 -0.861052,0.352717 -1.435054,0.495577 -1.298102,0.323082 -1.647209,0.50111 -2.072225,1.058333 -0.184969,0.242514 -0.470453,0.474681 -0.63407,0.515731 -0.163612,0.04105 -0.297139,0.125092 -0.297139,0.186552 0,0.06145 -0.0846,0.111621 -0.188103,0.111621 -0.103499,0 -0.188619,0.04954 -0.188619,0.110071 0,0.06053 -0.397162,0.399754 -0.882633,0.753959 -0.485472,0.354205 -0.918719,0.742348 -0.963249,0.86248 -0.04452,0.120062 -0.174345,0.303259 -0.288354,0.406693 -0.114008,0.103504 -0.315442,0.357206 -0.447518,0.564307 -0.132064,0.207008 -0.370764,0.489362 -0.530717,0.627352 -1.307721,1.128293 -3.37398,4.074154 -3.40341,4.852417 -0.0044,0.115703 -0.228936,0.652322 -0.498677,1.192175 -0.269743,0.539853 -0.53067,1.235647 -0.57981,1.546159 -0.04915,0.310534 -0.231038,0.959772 -0.404627,1.442806 l -0.315743,0.877982 -0.0093,2.382284 a 29.8594,29.8594 0 0 1 0.517281,-0.555522 29.8594,29.8594 0 0 1 1.560111,-1.452107 29.8594,29.8594 0 0 1 0.06925,-0.05581 c -0.109925,-1.603223 -0.008,-2.89078 0.297139,-2.89078 0.06004,0 0.109037,-0.14437 0.109037,-0.320394 0,-0.176093 0.104835,-0.528754 0.233061,-0.783931 0.551428,-1.097471 0.645439,-1.30795 0.645439,-1.44849 0,-0.377838 1.771822,-2.967778 2.030367,-2.967778 0.05162,0 0.370766,-0.240044 0.709001,-0.533301 1.061637,-0.920519 1.508879,-1.228596 2.567801,-1.769401 1.086836,-0.555066 1.364321,-0.719164 2.471167,-1.461409 0.7306,-0.489923 2.29623,-1.270366 3.175,-1.582849 0.994656,-0.353671 2.251981,-0.552971 3.583761,-0.566891 1.586393,-0.01693 4.578026,0.230833 5.071008,0.419613 0.192309,0.07375 0.789372,0.146034 1.327051,0.162264 0.695909,0.02039 1.08321,0.09556 1.344104,0.260449 l 0.366903,0.23151 -0.223759,-0.259932 c -0.122913,-0.143116 -0.574432,-0.403911 -1.003557,-0.578776 -1.826658,-0.744727 -3.452669,-1.347205 -3.635953,-1.347205 -0.108376,0 -0.216072,-0.05623 -0.239262,-0.125573 -0.02309,-0.06927 -0.408871,-0.21462 -0.857312,-0.322461 -0.448442,-0.108026 -0.939479,-0.257036 -1.091406,-0.331246 -0.205121,-0.100161 -1.757045,-0.150548 -3.093868,-0.137976 z" /><path
           style="fill:#220055;stroke-width:0.125463"
           d="m 64.919715,56.652777 c -0.114195,-0.126163 -0.207634,-0.29022 -0.207634,-0.364526 0,-0.07421 -0.197616,-0.371598 -0.439123,-0.660682 -0.241518,-0.289059 -0.441601,-0.647277 -0.444629,-0.796004 -0.003,-0.148658 -0.08741,-0.496254 -0.187528,-0.77228 -0.100118,-0.276026 -0.27033,-1.066442 -0.378275,-1.756484 -0.107934,-0.690042 -0.247614,-1.42401 -0.310382,-1.631018 -0.154155,-0.508475 -0.254426,-5.100362 -0.109395,-5.01075 0.06406,0.03966 0.11285,-0.494885 0.11285,-1.236297 0,-1.328692 0.168325,-2.162128 0.406908,-2.014676 0.08497,0.05241 0.104362,-0.0269 0.05478,-0.224494 -0.04455,-0.177416 0.0056,-0.461722 0.11939,-0.67738 0.107887,-0.204318 0.217444,-0.57972 0.243428,-0.834155 0.026,-0.254412 0.246322,-0.837796 0.489618,-1.296409 0.243294,-0.458614 0.442354,-0.920103 0.442354,-1.025555 0,-0.105522 0.22584,-0.461467 0.501855,-0.791135 0.276019,-0.329668 0.501851,-0.670932 0.501851,-0.758365 0,-0.08743 0.141144,-0.343977 0.31366,-0.570165 0.172522,-0.226118 0.313659,-0.457871 0.313659,-0.514876 0,-0.05705 0.11292,-0.174169 0.250926,-0.260349 0.155128,-0.09694 0.250926,-0.292585 0.250926,-0.512603 0,-0.384053 0.290048,-0.717919 0.686897,-0.790671 0.136274,-0.02505 0.316712,-0.183677 0.400964,-0.352698 0.08426,-0.169066 0.269164,-0.350169 0.410906,-0.402606 0.154712,-0.05728 0.259315,-0.209883 0.261711,-0.381663 0.0051,-0.363412 0.276088,-0.725479 0.543061,-0.725479 0.113151,0 0.205732,-0.08998 0.205732,-0.199912 0,-0.109928 0.10195,-0.226582 0.226535,-0.259166 0.124586,-0.03247 0.28907,-0.224958 0.365491,-0.427398 0.104385,-0.276513 0.219717,-0.36812 0.463514,-0.36812 0.302341,0 0.831325,-0.383287 0.822508,-0.595954 -0.0021,-0.05172 0.13901,-0.112015 0.313659,-0.133815 0.174656,-0.02087 0.31756,-0.120596 0.31756,-0.219624 0,-0.116886 0.134186,-0.179967 0.383793,-0.179967 0.433905,0 0.38998,-0.246271 -0.04617,-0.258888 l -0.274887,-0.007 0.282292,-0.113407 c 0.155268,-0.06238 0.282295,-0.199911 0.282295,-0.305711 0,-0.105754 0.05645,-0.192259 0.125467,-0.192259 0.069,0 0.125466,-0.08465 0.125466,-0.188315 0,-0.105754 0.123495,-0.196665 0.282293,-0.207333 0.524501,-0.03548 0.578048,-0.04661 0.670737,-0.139382 0.171177,-0.171153 0.456643,-0.09949 0.381697,0.09578 -0.08451,0.22032 0.03077,0.235255 0.483874,0.06308 0.192026,-0.07305 0.293515,-0.183214 0.243381,-0.264384 -0.05703,-0.0923 -0.0021,-0.112479 0.162968,-0.06007 0.28039,0.08906 0.690056,-0.02853 0.601095,-0.172546 -0.032,-0.05172 0.09536,-0.09207 0.283012,-0.08952 0.187643,0.0023 0.454098,-0.04082 0.592109,-0.09648 0.140054,-0.05636 0.03296,0.09996 -0.242352,0.353695 -0.271305,0.250005 -0.426565,0.454531 -0.345024,0.454531 0.08154,0 0.262935,-0.114798 0.4031,-0.254852 0.14017,-0.140077 0.42246,-0.288364 0.627316,-0.32932 0.204851,-0.04105 0.372471,-0.138454 0.372471,-0.216378 0,-0.272408 0.737443,-0.480785 1.478345,-0.417773 3.996872,0.339989 4.919069,0.494908 4.922207,0.826873 l 0.0019,0.203158 0.123542,-0.188084 c 0.08755,-0.133351 0.150954,-0.146803 0.217653,-0.04592 0.05176,0.07816 0.364446,0.268999 0.694873,0.423826 0.679534,0.318467 0.718663,0.429879 0.08739,0.248846 -0.286149,-0.0821 -0.450675,-0.07908 -0.505069,0.0093 -0.05568,0.08998 -0.659844,0.08465 -1.951096,-0.01855 -2.092989,-0.165588 -2.154809,-0.165588 -3.378035,0.007 -1.341793,0.188779 -1.855739,0.314872 -2.457081,0.602586 -0.303594,0.14518 -0.89074,0.389039 -1.30477,0.541733 -0.760913,0.280664 -1.071451,0.463831 -2.321072,1.369115 -0.37953,0.274959 -0.745576,0.50001 -0.813447,0.500126 -0.257644,4.18e-4 -1.649362,0.768361 -2.015573,1.112153 -0.210371,0.197592 -0.591462,0.434656 -0.846878,0.527028 -0.255416,0.0923 -0.464393,0.241262 -0.464393,0.330898 0,0.08975 -0.116259,0.163037 -0.258331,0.163037 -0.142071,0 -0.225747,0.05265 -0.185904,0.117117 0.03984,0.06447 -0.19678,0.39326 -0.525813,0.730674 -0.329033,0.337438 -0.704055,0.745192 -0.833373,0.906142 -0.330091,0.410815 -1.709554,3.098998 -1.709554,3.331424 0,0.105522 -0.0847,0.224495 -0.1882,0.264106 -0.103504,0.03966 -0.188199,0.167907 -0.188199,0.284978 0,0.117118 -0.13581,0.734037 -0.301785,1.371133 -0.292187,1.121522 -0.341775,2.53695 -0.117188,3.345061 0.03836,0.13799 0.113407,0.561445 0.166771,0.940975 0.05336,0.379531 0.192258,1.169946 0.30865,1.756484 0.143857,0.724923 0.247964,2.211573 0.3251,4.642144 0.06241,1.966646 0.149539,3.758474 0.193626,3.981855 0.08743,0.443052 -0.0167,1.036687 -0.181729,1.036687 -0.05701,0 -0.197059,-0.103202 -0.311268,-0.229364 z m 8.951184,-4.538176 c 0,-0.06911 0.05902,-0.125466 0.131171,-0.125466 0.07215,0 0.264111,-0.132888 0.426593,-0.295415 0.16248,-0.162573 0.391112,-0.332149 0.508063,-0.377025 0.116955,-0.04499 0.241923,-0.19365 0.277719,-0.33048 0.03579,-0.136831 0.112294,-0.219625 0.169994,-0.184141 0.0577,0.03572 0.164127,-0.04592 0.236531,-0.181127 0.0724,-0.135207 0.238802,-0.279968 0.369797,-0.321551 0.383278,-0.121524 0.193255,-0.52689 -0.247072,-0.52689 -0.201975,0 -0.367222,0.03293 -0.367222,0.07329 0,0.04012 -0.127044,0.07769 -0.282295,0.08303 -0.586086,0.02087 -1.918897,0.355643 -2.054236,0.516847 -0.07751,0.0923 -0.416257,0.189012 -0.752778,0.214754 -0.336524,0.02574 -0.91472,0.189476 -1.284881,0.363575 l -0.673017,0.316658 0.296629,0.05102 0.29663,0.05102 -0.353194,0.147962 c -0.48899,0.204782 -1.526554,0.189011 -1.704793,-0.02574 -0.110507,-0.133119 -0.10239,-0.189475 0.03486,-0.242189 0.09838,-0.0378 0.391841,-0.38948 0.652108,-0.781603 0.260275,-0.3921 0.75087,-0.932395 1.090211,-1.200628 0.719477,-0.568704 1.038964,-0.657134 0.439699,-0.121756 -0.687357,0.614159 -0.308685,0.557688 0.688488,-0.102739 0.956231,-0.633246 2.084634,-1.059183 2.818673,-1.06396 0.451011,-0.0023 0.618044,-0.230524 0.339081,-0.462069 -0.120665,-0.100188 -0.403774,-0.125699 -0.831494,-0.07514 l -0.648527,0.07676 0.305732,-0.216377 c 0.210742,-0.149122 0.54916,-0.216378 1.089162,-0.216378 h 0.783431 l -0.268255,-0.202462 c -0.275451,-0.207797 -0.228136,-0.487719 0.08242,-0.487719 0.09587,0 0.326625,-0.141237 0.512768,-0.313643 0.497845,-0.461397 1.020645,-0.458567 1.638643,0.0093 0.454112,0.343468 0.883337,0.988889 1.054459,1.585563 0.160741,0.560471 -0.144855,1.58315 -0.600038,2.008043 -0.191632,0.178807 -0.535109,0.556551 -0.76327,0.83928 -0.24055,0.298081 -0.52233,0.514041 -0.67068,0.514041 -0.140703,0 -0.405706,0.102275 -0.588871,0.22751 -0.390774,0.266889 -1.80665,0.901735 -2.011105,0.901735 -0.07762,0 -0.141144,-0.05636 -0.141144,-0.125467 z M 84.78621,47.735126 c 0,-0.14773 1.069009,-1.14091 1.228017,-1.14091 0.08365,0 0.15209,-0.05566 0.15209,-0.123843 0,-0.06795 0.437554,-0.333843 0.97234,-0.59062 1.083457,-0.520234 2.275099,-0.675385 3.262047,-0.424731 0.293271,0.07444 0.76855,0.194346 1.056179,0.266263 0.571311,0.14286 1.233528,0.492148 1.233528,0.6505 0,0.05496 -0.352867,0.09532 -0.784147,0.08952 -0.43128,-0.0046 -1.038208,0.04708 -1.348729,0.117117 -1.183297,0.26726 -1.726941,0.380992 -2.759497,0.577262 -0.58616,0.111552 -1.207203,0.296621 -1.380096,0.411558 -0.306327,0.203622 -1.631721,0.339942 -1.631721,0.167907 z M 68.899525,47.000045 c -0.18108,-0.118277 0.0083,-0.656646 0.231081,-0.65704 0.08848,-1.63e-4 0.358475,-0.169299 0.599992,-0.376098 0.241517,-0.206637 0.392747,-0.375936 0.336062,-0.376098 -0.05668,-1.16e-4 -0.01832,-0.08488 0.08514,-0.188548 0.103504,-0.103434 0.229156,-0.188083 0.279219,-0.188083 0.05007,0 0.28595,-0.227742 0.524195,-0.506064 0.311454,-0.363876 0.498429,-0.485353 0.665422,-0.432361 0.15332,0.0487 0.286933,-0.01392 0.393116,-0.183909 0.08848,-0.1417 0.451902,-0.458034 0.807614,-0.703006 0.538713,-0.371042 0.791954,-0.457617 1.515923,-0.518309 0.608967,-0.05102 0.960347,-0.02319 1.173728,0.09439 0.167513,0.09207 0.361017,0.170226 0.430021,0.173705 0.069,0.0046 0.260121,0.08279 0.424705,0.176024 0.236517,0.134047 0.262816,0.192722 0.125467,0.279783 -0.118417,0.07491 -0.125235,0.110624 -0.02134,0.112015 0.197059,0.0023 0.447948,0.469862 0.343196,0.639346 -0.04958,0.08024 -0.145921,0.04314 -0.25052,-0.09671 l -0.169948,-0.227046 -0.201511,0.282288 c -0.127253,0.178344 -0.331777,0.282288 -0.555021,0.282288 -0.194415,0 -0.595848,0.08558 -0.892048,0.189939 -0.296201,0.104594 -0.642224,0.157239 -0.768938,0.116886 -0.25829,-0.08187 -0.555949,0.158399 -0.623849,0.503837 -0.02799,0.142396 -0.238755,0.285558 -0.560047,0.380319 -0.283331,0.08349 -0.592862,0.199911 -0.687841,0.258632 -0.09497,0.05868 -0.258375,0.116886 -0.363095,0.129178 -0.509588,0.06007 -2.343147,0.626311 -2.489069,0.768661 -0.192675,0.188084 -0.170829,0.18391 -0.351633,0.06563 z m 17.141319,-4.837903 c 0,-0.115494 0.05418,-0.210116 0.120388,-0.210116 0.139404,0 0.77246,-0.654536 0.701598,-0.725386 -0.02609,-0.02598 -0.191006,0.04661 -0.366459,0.161645 -0.175468,0.115031 -0.371571,0.176488 -0.435791,0.136831 -0.06422,-0.03966 -0.193742,0.02319 -0.28781,0.138685 l -0.171038,0.210812 0.17621,-0.106218 c 0.113616,-0.06842 0.147127,-0.05914 0.09432,0.02621 -0.04504,0.07282 -0.251362,0.191562 -0.458507,0.263781 -0.435118,0.151673 -0.50579,-0.007 -0.168974,-0.378997 l 0.207635,-0.229365 -0.219184,-0.242213 -0.219184,-0.242189 0.231104,0.05844 c 0.156683,0.03966 0.311916,-0.06424 0.482038,-0.322247 0.33945,-0.514993 1.238031,-0.8121 2.181609,-0.721328 0.671781,0.0647 1.519561,0.384284 1.519561,0.572971 0,0.113639 0.738301,0.418886 1.066437,0.440733 0.138013,0.0093 0.250928,0.101347 0.250928,0.205013 0,0.103435 0.07057,0.233354 0.156822,0.288527 0.286188,0.183213 0.16299,0.311509 -0.37639,0.392332 -1.39054,0.20826 -1.599658,0.219392 -1.599658,0.08465 0,-0.07584 -0.119831,-0.138222 -0.266289,-0.138222 -0.224355,0 -0.241296,-0.03015 -0.107585,-0.191098 0.24051,-0.289802 0.06665,-0.35286 -0.361882,-0.131265 l -0.382684,0.197825 -0.162202,-0.177184 -0.162202,-0.177184 -0.439121,0.259769 c -0.241517,0.14286 -0.566153,0.373408 -0.721414,0.512279 l -0.282292,0.25251 z"
           id="path324"
           sodipodi:nodetypes="csssssscscssssssscscscssssscssscssccssssccscsccccssscscsccccsccccsssccsssssssssssssssccssscscscsscssccccssssscccsccssccsccscsscsssssssssscccssscscscsssssscccccscccsccscsccccsscsscccsssccccccscsccsscccccsscs" /></g></g></g></svg>
