<svg viewBox="0 0 202.27 202.27" xmlns:xlink="http://www.w3.org/1999/xlink" xmlns="http://www.w3.org/2000/svg"><defs><linearGradient id="b"><stop offset="0" stop-color="#c7053f"/><stop offset="1" stop-color="#f97f39"/></linearGradient><linearGradient id="a"><stop offset="0" stop-color="#c8063f"/><stop offset="1" stop-color="#f97f39"/></linearGradient><linearGradient xlink:href="#a" id="i" gradientUnits="userSpaceOnUse" gradientTransform="matrix(11.10928 0 0 11.10928 942.18 935.4)" x1="-96.75" y1="-78.54" x2="-80.86" y2="-78.62"/><linearGradient xlink:href="#b" id="j" gradientUnits="userSpaceOnUse" gradientTransform="matrix(1.76088 0 0 1.76088 114.45 -47.82)" x1="-140.29" y1="62.84" x2="-40.07" y2="62.37"/><linearGradient xlink:href="#a" id="g" gradientUnits="userSpaceOnUse" gradientTransform="matrix(11.10928 0 0 11.10928 942.18 935.4)" x1="-96.75" y1="-78.54" x2="-80.86" y2="-78.62"/><linearGradient xlink:href="#b" id="h" gradientUnits="userSpaceOnUse" gradientTransform="matrix(1.76088 0 0 1.76088 114.45 -47.82)" x1="-140.29" y1="62.84" x2="-40.07" y2="62.37"/><linearGradient xlink:href="#b" id="m" gradientUnits="userSpaceOnUse" gradientTransform="matrix(1.76088 0 0 1.76088 114.45 -47.82)" x1="-140.29" y1="62.84" x2="-40.07" y2="62.37"/><linearGradient xlink:href="#a" id="k" gradientUnits="userSpaceOnUse" gradientTransform="matrix(11.10928 0 0 11.10928 942.18 935.4)" x1="-96.75" y1="-78.54" x2="-80.86" y2="-78.62"/><linearGradient xlink:href="#b" id="l" gradientUnits="userSpaceOnUse" gradientTransform="matrix(1.76088 0 0 1.76088 114.45 -47.82)" x1="-140.29" y1="62.84" x2="-40.07" y2="62.37"/><linearGradient xlink:href="#a" id="p" gradientUnits="userSpaceOnUse" gradientTransform="matrix(11.10928 0 0 11.10928 942.18 935.4)" x1="-96.75" y1="-78.54" x2="-80.86" y2="-78.62"/><linearGradient xlink:href="#b" id="q" gradientUnits="userSpaceOnUse" gradientTransform="matrix(1.76088 0 0 1.76088 114.45 -47.82)" x1="-140.29" y1="62.84" x2="-40.07" y2="62.37"/><linearGradient xlink:href="#a" id="n" gradientUnits="userSpaceOnUse" gradientTransform="matrix(11.10928 0 0 11.10928 942.18 935.4)" x1="-96.75" y1="-78.54" x2="-80.86" y2="-78.62"/><linearGradient xlink:href="#b" id="o" gradientUnits="userSpaceOnUse" gradientTransform="matrix(1.76088 0 0 1.76088 114.45 -47.82)" x1="-140.29" y1="62.84" x2="-40.07" y2="62.37"/><linearGradient xlink:href="#a" id="c" gradientUnits="userSpaceOnUse" gradientTransform="matrix(11.10928 0 0 11.10928 942.18 935.4)" x1="-96.75" y1="-78.54" x2="-80.86" y2="-78.62"/><linearGradient xlink:href="#b" id="d" gradientUnits="userSpaceOnUse" gradientTransform="matrix(1.76088 0 0 1.76088 114.45 -47.82)" x1="-140.29" y1="62.84" x2="-40.07" y2="62.37"/><linearGradient xlink:href="#a" id="e" gradientUnits="userSpaceOnUse" gradientTransform="matrix(11.10928 0 0 11.10928 942.18 935.4)" x1="-96.75" y1="-78.54" x2="-80.86" y2="-78.62"/><linearGradient xlink:href="#b" id="f" gradientUnits="userSpaceOnUse" gradientTransform="matrix(1.76088 0 0 1.76088 114.45 -47.82)" x1="-140.29" y1="62.84" x2="-40.07" y2="62.37"/></defs><g transform="translate(145.47 38.29)"><circle cx="-44.34" cy="62.84" r="101.13" fill="#0d0d0d" paint-order="fill markers stroke"/><g fill="url(#e)" stroke="url(#f)" aria-label="&lt;/&gt;" style="-inkscape-font-specification:sanchez" transform="translate(0 .01)" font-size="117.57" font-family="sanchez" stroke-width="2.94"><g fill="url(#g)" stroke="none" color="#000"><path style="-inkscape-font-specification:sanchez;-inkscape-stroke:none" d="M-131.1 64.61v-2.83q0-2.05 2.2-3l52.72-25.33q.63-.16.95-.16 1.1 0 1.1 1.42v6.76q0 2.2-2.05 3.15l-38.87 18.57 38.87 18.58q2.05.78 2.05 2.99v6.76q0 1.42-1.1 1.42-.32 0-.95-.16L-128.9 67.6q-2.2-.94-2.2-2.99z" fill="url(#i)"/><path style="-inkscape-font-specification:sanchez;-inkscape-stroke:none" d="M-75.23 31.82c-.46 0-.83.08-1.3.2l-.15.04-52.8 25.38a4.85 4.85 0 0 0-3.1 4.34v2.83c0 1.9 1.28 3.56 3.1 4.34l-.06-.02 52.86 25.24.15.04c.47.12.84.2 1.3.2.68 0 1.5-.31 1.98-.92.48-.61.59-1.3.59-1.97v-6.76c0-1.93-1.2-3.68-2.99-4.37l.1.05-36.1-17.25 36.09-17.23a4.95 4.95 0 0 0 2.9-4.49v-6.76c0-.67-.11-1.36-.59-1.97a2.61 2.61 0 0 0-1.98-.92z" fill="url(#j)"/></g><path style="-inkscape-font-specification:sanchez;-inkscape-stroke:none" d="M-33.11 12.35c-1.41-.24-2.8.99-3.36 2.31l-.03.07-28.47 95.31.1-.24a2.47 2.47 0 0 0 .57 2.98c.56.46 1.2.56 1.8.56h7.05c.71 0 1.47-.2 2.06-.67a3.4 3.4 0 0 0 1.13-1.85l-.02.06 13.52-45.25 2.17-7.28 12.75-42.66c.13-.37.2-.77.2-1.17 0-.6-.37-1.38-.93-1.75a2.72 2.72 0 0 0-1.6-.42z" color="#000" fill="url(#m)" stroke="none"/><g fill="url(#n)" stroke="none" color="#000"><path style="-inkscape-font-specification:sanchez;-inkscape-stroke:none" d="M42.42 61.78v2.83q0 2.05-2.04 3l-52.73 25.17q-.63.16-1.1.16-1.1 0-1.1-1.42v-6.76q0-2.2 2.2-3L26.37 63.2l-38.72-18.57q-2.2-1.1-2.2-3.15v-6.76q0-1.42 1.1-1.42.47 0 1.1.16l52.73 25.34q2.04.94 2.04 2.99z" fill="url(#p)"/><path style="-inkscape-font-specification:sanchez;-inkscape-stroke:none" d="M-13.45 31.82c-.68 0-1.51.3-1.99.92-.47.61-.58 1.3-.58 1.97v6.76c0 1.9 1.22 3.57 3.01 4.47h.02L22.97 63.2l-35.95 17.25.14-.06a4.7 4.7 0 0 0-3.18 4.38v6.76c0 .67.1 1.36.58 1.97.48.6 1.3.92 2 .92.47 0 .94-.08 1.45-.2l.14-.04L41 68.94a4.84 4.84 0 0 0 2.9-4.33v-2.83a4.84 4.84 0 0 0-2.9-4.33l-52.84-25.4-.14-.03c-.5-.12-.98-.2-1.46-.2z" fill="url(#q)"/></g></g></g></svg>