<?xml version="1.0" encoding="UTF-8" standalone="no"?>
<!-- Created with Inkscape (http://www.inkscape.org/) -->

<svg
   width="16.394524mm"
   height="16.63868mm"
   viewBox="0 0 16.394524 16.63868"
   version="1.1"
   id="svg1"
   xmlns:xlink="http://www.w3.org/1999/xlink"
   xmlns="http://www.w3.org/2000/svg"
   xmlns:svg="http://www.w3.org/2000/svg">
  <defs
     id="defs1">
    <linearGradient
       xlink:href="#linearGradient6"
       id="linearGradient7"
       x1="109.92363"
       y1="51.394035"
       x2="96.802734"
       y2="38.156876"
       gradientUnits="userSpaceOnUse"
       gradientTransform="translate(-21.396486,42.276456)" />
    <linearGradient
       id="linearGradient6">
      <stop
         style="stop-color:#fa8500;stop-opacity:1;"
         offset="0.00181084"
         id="stop6" />
      <stop
         style="stop-color:#fa0053;stop-opacity:1;"
         offset="1"
         id="stop7" />
    </linearGradient>
  </defs>
  <g
     id="layer1"
     transform="translate(-75.40625,-80.433332)">
    <path
       style="color:#000000;fill:url(#linearGradient7);fill-opacity:1;stroke-linejoin:round;-inkscape-stroke:none"
       d="m 76.65625,80.433332 a 1.250125,1.250125 0 0 0 -1.25,1.25 v 7.07032 a 1.250125,1.250125 0 0 0 1.25,1.25 h 3.966794 l -4.857419,4.941401 a 1.250125,1.250125 0 0 0 0.890625,2.126959 h 6.947264 c 4.52404,0 8.19726,-3.75048 8.19726,-8.31836 0,-4.5679 -3.67323,-8.32032 -8.19726,-8.32032 z m 1.25,2.5 h 5.697264 c 3.14921,0 5.69726,2.58021 5.69726,5.82032 0,3.24008 -2.54805,5.81836 -5.69726,5.81836 h -3.96484 l 4.85546,-4.94336 a 1.250125,1.250125 0 0 0 -0.89062,-2.125 H 77.90625 Z"
       id="path2-6" />
  </g>
</svg>
